# MagicaVoxel @ Ephtracy

# group
o 

# material
mtllib Oak Tree Medium.mtl
usemtl palette

# normals
vn -1 0 0
vn 1 0 0
vn 0 0 1
vn 0 0 -1
vn 0 -1 0
vn 0 1 0

# texcoords
vt 0.751953 0.5
vt 0.755859 0.5
vt 0.759766 0.5
vt 0.763672 0.5
vt 0.783203 0.5
vt 0.857422 0.5

# verts
v -0.5 1.8 0.2
v -0.5 1.8 -0.3
v -0.5 1.9 0.3
v -0.5 1.9 0.2
v -0.5 1.9 -0.3
v -0.5 1.9 -0.4
v -0.5 2 0.2
v -0.5 2 0
v -0.5 2 -0.1
v -0.5 2 -0.3
v -0.5 2.1 0.4
v -0.5 2.1 0.3
v -0.5 2.1 0.2
v -0.5 2.1 0
v -0.5 2.1 -0.1
v -0.5 2.1 -0.3
v -0.5 2.1 -0.4
v -0.5 2.1 -0.5
v -0.5 2.5 0.2
v -0.5 2.5 0
v -0.5 2.5 -0.1
v -0.5 2.5 -0.3
v -0.5 2.6 0.4
v -0.5 2.6 0.3
v -0.5 2.6 0.2
v -0.5 2.6 0
v -0.5 2.6 -0.1
v -0.5 2.6 -0.3
v -0.5 2.6 -0.4
v -0.5 2.6 -0.5
v -0.5 2.7 0.3
v -0.5 2.7 -0.4
v -0.4 1.8 0.4
v -0.4 1.8 0.2
v -0.4 1.8 -0.3
v -0.4 1.8 -0.5
v -0.4 1.9 0.3
v -0.4 1.9 0.2
v -0.4 1.9 -0.3
v -0.4 1.9 -0.4
v -0.4 2.1 0.5
v -0.4 2.1 0.4
v -0.4 2.1 0.3
v -0.4 2.1 -0.4
v -0.4 2.1 -0.5
v -0.4 2.1 -0.6
v -0.4 2.6 0.5
v -0.4 2.6 0.4
v -0.4 2.6 0.3
v -0.4 2.6 -0.4
v -0.4 2.6 -0.5
v -0.4 2.6 -0.6
v -0.4 2.7 0.4
v -0.4 2.7 0.3
v -0.4 2.7 -0.4
v -0.4 2.7 -0.5
v -0.4 2.8 0.3
v -0.4 2.8 -0.4
v -0.3 1.9 0.5
v -0.3 1.9 0.4
v -0.3 1.9 -0.5
v -0.3 1.9 -0.6
v -0.3 2.1 0.5
v -0.3 2.1 0.4
v -0.3 2.1 -0.5
v -0.3 2.1 -0.6
v -0.3 2.6 0.5
v -0.3 2.6 0.4
v -0.3 2.6 -0.5
v -0.3 2.6 -0.6
v -0.3 2.7 0.5
v -0.3 2.7 0.4
v -0.3 2.7 0.3
v -0.3 2.7 -0.4
v -0.3 2.7 -0.5
v -0.3 2.7 -0.6
v -0.3 2.8 0.4
v -0.3 2.8 0.3
v -0.3 2.8 -0.4
v -0.3 2.8 -0.5
v -0.2 1.2 0.1
v -0.2 1.2 -0.2
v -0.2 1.3 0.1
v -0.2 1.3 -0.2
v -0.2 1.8 0.5
v -0.2 1.8 0.4
v -0.2 1.8 -0.5
v -0.2 1.8 -0.6
v -0.2 1.9 0.5
v -0.2 1.9 0.4
v -0.2 1.9 -0.5
v -0.2 1.9 -0.6
v -0.1 1.2 0.2
v -0.1 1.2 0.1
v -0.1 1.2 -0.2
v -0.1 1.2 -0.3
v -0.1 1.3 0.2
v -0.1 1.3 0.1
v -0.1 1.3 -0.2
v -0.1 1.3 -0.3
v -0.1 1.8 0.1
v -0.1 1.8 -0.2
v 0.2 1.2 0.2
v 0.2 1.2 0.1
v 0.2 1.2 -0.2
v 0.2 1.2 -0.3
v 0.2 1.3 0.2
v 0.2 1.3 0.1
v 0.2 1.3 -0.2
v 0.2 1.3 -0.3
v 0.2 1.8 0.1
v 0.2 1.8 -0.2
v 0.3 1.2 0.1
v 0.3 1.2 -0.2
v 0.3 1.3 0.1
v 0.3 1.3 -0.2
v 0.3 1.8 0.5
v 0.3 1.8 0.4
v 0.3 1.8 -0.5
v 0.3 1.8 -0.6
v 0.3 1.9 0.5
v 0.3 1.9 0.4
v 0.3 1.9 -0.5
v 0.3 1.9 -0.6
v 0.4 1.9 0.5
v 0.4 1.9 0.4
v 0.4 1.9 -0.5
v 0.4 1.9 -0.6
v 0.4 2.1 0.5
v 0.4 2.1 0.4
v 0.4 2.1 -0.5
v 0.4 2.1 -0.6
v 0.4 2.6 0.5
v 0.4 2.6 0.4
v 0.4 2.6 -0.5
v 0.4 2.6 -0.6
v 0.4 2.7 0.5
v 0.4 2.7 0.4
v 0.4 2.7 0.3
v 0.4 2.7 -0.4
v 0.4 2.7 -0.5
v 0.4 2.7 -0.6
v 0.4 2.8 0.4
v 0.4 2.8 0.3
v 0.4 2.8 -0.4
v 0.4 2.8 -0.5
v 0.5 1.8 0.4
v 0.5 1.8 0.2
v 0.5 1.8 -0.3
v 0.5 1.8 -0.5
v 0.5 1.9 0.3
v 0.5 1.9 0.2
v 0.5 1.9 -0.3
v 0.5 1.9 -0.4
v 0.5 2.1 0.5
v 0.5 2.1 0.4
v 0.5 2.1 0.3
v 0.5 2.1 -0.4
v 0.5 2.1 -0.5
v 0.5 2.1 -0.6
v 0.5 2.6 0.5
v 0.5 2.6 0.4
v 0.5 2.6 0.3
v 0.5 2.6 -0.4
v 0.5 2.6 -0.5
v 0.5 2.6 -0.6
v 0.5 2.7 0.4
v 0.5 2.7 0.3
v 0.5 2.7 -0.4
v 0.5 2.7 -0.5
v 0.5 2.8 0.3
v 0.5 2.8 -0.4
v 0.6 1.8 0.2
v 0.6 1.8 -0.3
v 0.6 1.9 0.3
v 0.6 1.9 0.2
v 0.6 1.9 -0.3
v 0.6 1.9 -0.4
v 0.6 2 0.2
v 0.6 2 0
v 0.6 2 -0.1
v 0.6 2 -0.3
v 0.6 2.1 0.4
v 0.6 2.1 0.3
v 0.6 2.1 0.2
v 0.6 2.1 0
v 0.6 2.1 -0.1
v 0.6 2.1 -0.3
v 0.6 2.1 -0.4
v 0.6 2.1 -0.5
v 0.6 2.5 0.2
v 0.6 2.5 0
v 0.6 2.5 -0.1
v 0.6 2.5 -0.3
v 0.6 2.6 0.4
v 0.6 2.6 0.3
v 0.6 2.6 0.2
v 0.6 2.6 0
v 0.6 2.6 -0.1
v 0.6 2.6 -0.3
v 0.6 2.6 -0.4
v 0.6 2.6 -0.5
v 0.6 2.7 0.3
v 0.6 2.7 -0.4
v -0.4 2.1 0.5
v -0.4 2.6 0.5
v -0.3 1.9 0.5
v -0.3 2.1 0.5
v -0.3 2.6 0.5
v -0.3 2.7 0.5
v -0.2 1.8 0.5
v -0.2 1.9 0.5
v -0.2 2 0.5
v -0.2 2.1 0.5
v -0.2 2.5 0.5
v -0.2 2.6 0.5
v 0 2 0.5
v 0 2.1 0.5
v 0 2.5 0.5
v 0 2.6 0.5
v 0.1 2 0.5
v 0.1 2.1 0.5
v 0.1 2.5 0.5
v 0.1 2.6 0.5
v 0.3 1.8 0.5
v 0.3 1.9 0.5
v 0.3 2 0.5
v 0.3 2.1 0.5
v 0.3 2.5 0.5
v 0.3 2.6 0.5
v 0.4 1.9 0.5
v 0.4 2.1 0.5
v 0.4 2.6 0.5
v 0.4 2.7 0.5
v 0.5 2.1 0.5
v 0.5 2.6 0.5
v -0.5 2.1 0.4
v -0.5 2.6 0.4
v -0.4 1.8 0.4
v -0.4 2.1 0.4
v -0.4 2.6 0.4
v -0.4 2.7 0.4
v -0.3 1.9 0.4
v -0.3 2.1 0.4
v -0.3 2.6 0.4
v -0.3 2.7 0.4
v -0.3 2.8 0.4
v -0.2 1.8 0.4
v -0.2 1.9 0.4
v 0.3 1.8 0.4
v 0.3 1.9 0.4
v 0.4 1.9 0.4
v 0.4 2.1 0.4
v 0.4 2.6 0.4
v 0.4 2.7 0.4
v 0.4 2.8 0.4
v 0.5 1.8 0.4
v 0.5 2.1 0.4
v 0.5 2.6 0.4
v 0.5 2.7 0.4
v 0.6 2.1 0.4
v 0.6 2.6 0.4
v -0.5 1.9 0.3
v -0.5 2.1 0.3
v -0.5 2.6 0.3
v -0.5 2.7 0.3
v -0.4 1.9 0.3
v -0.4 2.1 0.3
v -0.4 2.6 0.3
v -0.4 2.7 0.3
v -0.4 2.8 0.3
v -0.3 2.7 0.3
v -0.3 2.8 0.3
v 0.4 2.7 0.3
v 0.4 2.8 0.3
v 0.5 1.9 0.3
v 0.5 2.1 0.3
v 0.5 2.6 0.3
v 0.5 2.7 0.3
v 0.5 2.8 0.3
v 0.6 1.9 0.3
v 0.6 2.1 0.3
v 0.6 2.6 0.3
v 0.6 2.7 0.3
v -0.5 1.8 0.2
v -0.5 1.9 0.2
v -0.4 1.8 0.2
v -0.4 1.9 0.2
v -0.1 1.2 0.2
v -0.1 1.3 0.2
v 0.2 1.2 0.2
v 0.2 1.3 0.2
v 0.5 1.8 0.2
v 0.5 1.9 0.2
v 0.6 1.8 0.2
v 0.6 1.9 0.2
v -0.2 1.2 0.1
v -0.2 1.3 0.1
v -0.1 1.2 0.1
v -0.1 1.3 0.1
v -0.1 1.8 0.1
v 0.2 1.2 0.1
v 0.2 1.3 0.1
v 0.2 1.8 0.1
v 0.3 1.2 0.1
v 0.3 1.3 0.1
v -0.2 1.2 -0.2
v -0.2 1.3 -0.2
v -0.1 1.2 -0.2
v -0.1 1.3 -0.2
v -0.1 1.8 -0.2
v 0.2 1.2 -0.2
v 0.2 1.3 -0.2
v 0.2 1.8 -0.2
v 0.3 1.2 -0.2
v 0.3 1.3 -0.2
v -0.5 1.8 -0.3
v -0.5 1.9 -0.3
v -0.4 1.8 -0.3
v -0.4 1.9 -0.3
v -0.1 1.2 -0.3
v -0.1 1.3 -0.3
v 0.2 1.2 -0.3
v 0.2 1.3 -0.3
v 0.5 1.8 -0.3
v 0.5 1.9 -0.3
v 0.6 1.8 -0.3
v 0.6 1.9 -0.3
v -0.5 1.9 -0.4
v -0.5 2.1 -0.4
v -0.5 2.6 -0.4
v -0.5 2.7 -0.4
v -0.4 1.9 -0.4
v -0.4 2.1 -0.4
v -0.4 2.6 -0.4
v -0.4 2.7 -0.4
v -0.4 2.8 -0.4
v -0.3 2.7 -0.4
v -0.3 2.8 -0.4
v 0.4 2.7 -0.4
v 0.4 2.8 -0.4
v 0.5 1.9 -0.4
v 0.5 2.1 -0.4
v 0.5 2.6 -0.4
v 0.5 2.7 -0.4
v 0.5 2.8 -0.4
v 0.6 1.9 -0.4
v 0.6 2.1 -0.4
v 0.6 2.6 -0.4
v 0.6 2.7 -0.4
v -0.5 2.1 -0.5
v -0.5 2.6 -0.5
v -0.4 1.8 -0.5
v -0.4 2.1 -0.5
v -0.4 2.6 -0.5
v -0.4 2.7 -0.5
v -0.3 1.9 -0.5
v -0.3 2.1 -0.5
v -0.3 2.6 -0.5
v -0.3 2.7 -0.5
v -0.3 2.8 -0.5
v -0.2 1.8 -0.5
v -0.2 1.9 -0.5
v 0.3 1.8 -0.5
v 0.3 1.9 -0.5
v 0.4 1.9 -0.5
v 0.4 2.1 -0.5
v 0.4 2.6 -0.5
v 0.4 2.7 -0.5
v 0.4 2.8 -0.5
v 0.5 1.8 -0.5
v 0.5 2.1 -0.5
v 0.5 2.6 -0.5
v 0.5 2.7 -0.5
v 0.6 2.1 -0.5
v 0.6 2.6 -0.5
v -0.4 2.1 -0.6
v -0.4 2.6 -0.6
v -0.3 1.9 -0.6
v -0.3 2.1 -0.6
v -0.3 2.6 -0.6
v -0.3 2.7 -0.6
v -0.2 1.8 -0.6
v -0.2 1.9 -0.6
v -0.2 2 -0.6
v -0.2 2.1 -0.6
v -0.2 2.5 -0.6
v -0.2 2.6 -0.6
v 0 2 -0.6
v 0 2.1 -0.6
v 0 2.5 -0.6
v 0 2.6 -0.6
v 0.1 2 -0.6
v 0.1 2.1 -0.6
v 0.1 2.5 -0.6
v 0.1 2.6 -0.6
v 0.3 1.8 -0.6
v 0.3 1.9 -0.6
v 0.3 2 -0.6
v 0.3 2.1 -0.6
v 0.3 2.5 -0.6
v 0.3 2.6 -0.6
v 0.4 1.9 -0.6
v 0.4 2.1 -0.6
v 0.4 2.6 -0.6
v 0.4 2.7 -0.6
v 0.5 2.1 -0.6
v 0.5 2.6 -0.6
v -0.1 1.2 0.2
v 0.2 1.2 0.2
v -0.2 1.2 0.1
v -0.1 1.2 0.1
v 0.2 1.2 0.1
v 0.3 1.2 0.1
v -0.2 1.2 -0.2
v -0.1 1.2 -0.2
v 0.2 1.2 -0.2
v 0.3 1.2 -0.2
v -0.1 1.2 -0.3
v 0.2 1.2 -0.3
v -0.2 1.8 0.5
v 0.3 1.8 0.5
v -0.4 1.8 0.4
v -0.2 1.8 0.4
v 0.3 1.8 0.4
v 0.5 1.8 0.4
v -0.5 1.8 0.2
v -0.4 1.8 0.2
v 0.5 1.8 0.2
v 0.6 1.8 0.2
v -0.1 1.8 0.1
v 0.2 1.8 0.1
v -0.1 1.8 -0.2
v 0.2 1.8 -0.2
v -0.5 1.8 -0.3
v -0.4 1.8 -0.3
v 0.5 1.8 -0.3
v 0.6 1.8 -0.3
v -0.4 1.8 -0.5
v -0.2 1.8 -0.5
v 0.3 1.8 -0.5
v 0.5 1.8 -0.5
v -0.2 1.8 -0.6
v 0.3 1.8 -0.6
v -0.3 1.9 0.5
v -0.2 1.9 0.5
v 0.3 1.9 0.5
v 0.4 1.9 0.5
v -0.3 1.9 0.4
v -0.2 1.9 0.4
v 0.3 1.9 0.4
v 0.4 1.9 0.4
v -0.5 1.9 0.3
v -0.4 1.9 0.3
v 0.5 1.9 0.3
v 0.6 1.9 0.3
v -0.5 1.9 0.2
v -0.4 1.9 0.2
v 0.5 1.9 0.2
v 0.6 1.9 0.2
v -0.5 1.9 -0.3
v -0.4 1.9 -0.3
v 0.5 1.9 -0.3
v 0.6 1.9 -0.3
v -0.5 1.9 -0.4
v -0.4 1.9 -0.4
v 0.5 1.9 -0.4
v 0.6 1.9 -0.4
v -0.3 1.9 -0.5
v -0.2 1.9 -0.5
v 0.3 1.9 -0.5
v 0.4 1.9 -0.5
v -0.3 1.9 -0.6
v -0.2 1.9 -0.6
v 0.3 1.9 -0.6
v 0.4 1.9 -0.6
v -0.4 2.1 0.5
v -0.3 2.1 0.5
v 0.4 2.1 0.5
v 0.5 2.1 0.5
v -0.5 2.1 0.4
v -0.4 2.1 0.4
v -0.3 2.1 0.4
v 0.4 2.1 0.4
v 0.5 2.1 0.4
v 0.6 2.1 0.4
v -0.5 2.1 0.3
v -0.4 2.1 0.3
v 0.5 2.1 0.3
v 0.6 2.1 0.3
v -0.5 2.1 -0.4
v -0.4 2.1 -0.4
v 0.5 2.1 -0.4
v 0.6 2.1 -0.4
v -0.5 2.1 -0.5
v -0.4 2.1 -0.5
v -0.3 2.1 -0.5
v 0.4 2.1 -0.5
v 0.5 2.1 -0.5
v 0.6 2.1 -0.5
v -0.4 2.1 -0.6
v -0.3 2.1 -0.6
v 0.4 2.1 -0.6
v 0.5 2.1 -0.6
v -0.1 1.3 0.2
v 0.2 1.3 0.2
v -0.2 1.3 0.1
v -0.1 1.3 0.1
v 0.2 1.3 0.1
v 0.3 1.3 0.1
v -0.2 1.3 -0.2
v -0.1 1.3 -0.2
v 0.2 1.3 -0.2
v 0.3 1.3 -0.2
v -0.1 1.3 -0.3
v 0.2 1.3 -0.3
v -0.4 2.6 0.5
v -0.3 2.6 0.5
v 0.4 2.6 0.5
v 0.5 2.6 0.5
v -0.5 2.6 0.4
v -0.4 2.6 0.4
v -0.3 2.6 0.4
v 0.4 2.6 0.4
v 0.5 2.6 0.4
v 0.6 2.6 0.4
v -0.5 2.6 0.3
v -0.4 2.6 0.3
v 0.5 2.6 0.3
v 0.6 2.6 0.3
v -0.5 2.6 -0.4
v -0.4 2.6 -0.4
v 0.5 2.6 -0.4
v 0.6 2.6 -0.4
v -0.5 2.6 -0.5
v -0.4 2.6 -0.5
v -0.3 2.6 -0.5
v 0.4 2.6 -0.5
v 0.5 2.6 -0.5
v 0.6 2.6 -0.5
v -0.4 2.6 -0.6
v -0.3 2.6 -0.6
v 0.4 2.6 -0.6
v 0.5 2.6 -0.6
v -0.3 2.7 0.5
v 0.4 2.7 0.5
v -0.4 2.7 0.4
v -0.3 2.7 0.4
v 0.4 2.7 0.4
v 0.5 2.7 0.4
v -0.5 2.7 0.3
v -0.4 2.7 0.3
v -0.3 2.7 0.3
v 0.4 2.7 0.3
v 0.5 2.7 0.3
v 0.6 2.7 0.3
v -0.5 2.7 -0.4
v -0.4 2.7 -0.4
v -0.3 2.7 -0.4
v 0.4 2.7 -0.4
v 0.5 2.7 -0.4
v 0.6 2.7 -0.4
v -0.4 2.7 -0.5
v -0.3 2.7 -0.5
v 0.4 2.7 -0.5
v 0.5 2.7 -0.5
v -0.3 2.7 -0.6
v 0.4 2.7 -0.6
v -0.3 2.8 0.4
v 0.4 2.8 0.4
v -0.4 2.8 0.3
v -0.3 2.8 0.3
v 0.4 2.8 0.3
v 0.5 2.8 0.3
v -0.4 2.8 -0.4
v -0.3 2.8 -0.4
v 0.4 2.8 -0.4
v 0.5 2.8 -0.4
v -0.3 2.8 -0.5
v 0.4 2.8 -0.5

# faces
f 4/1/1 2/1/1 1/1/1
f 5/1/1 2/1/1 4/1/1
f 7/1/1 4/1/1 3/1/1
f 7/1/1 6/1/1 5/1/1
f 7/1/1 5/1/1 4/1/1
f 8/1/1 6/1/1 7/1/1
f 9/1/1 6/1/1 8/1/1
f 10/1/1 6/1/1 9/1/1
f 12/1/1 7/1/1 3/1/1
f 13/2/1 8/2/1 7/2/1
f 13/1/1 7/1/1 12/1/1
f 14/1/1 9/1/1 8/1/1
f 14/2/1 8/2/1 13/2/1
f 15/2/1 10/2/1 9/2/1
f 15/1/1 9/1/1 14/1/1
f 16/1/1 6/1/1 10/1/1
f 16/2/1 10/2/1 15/2/1
f 17/1/1 6/1/1 16/1/1
f 19/2/1 15/2/1 14/2/1
f 19/2/1 18/2/1 17/2/1
f 19/2/1 17/2/1 16/2/1
f 19/2/1 16/2/1 15/2/1
f 19/2/1 12/2/1 11/2/1
f 19/2/1 14/2/1 13/2/1
f 19/2/1 13/2/1 12/2/1
f 20/2/1 18/2/1 19/2/1
f 21/2/1 18/2/1 20/2/1
f 22/2/1 18/2/1 21/2/1
f 23/2/1 19/2/1 11/2/1
f 24/2/1 19/2/1 23/2/1
f 25/3/1 20/3/1 19/3/1
f 25/2/1 19/2/1 24/2/1
f 26/2/1 21/2/1 20/2/1
f 26/3/1 20/3/1 25/3/1
f 27/3/1 22/3/1 21/3/1
f 27/2/1 21/2/1 26/2/1
f 28/2/1 18/2/1 22/2/1
f 28/3/1 22/3/1 27/3/1
f 29/2/1 18/2/1 28/2/1
f 30/2/1 18/2/1 29/2/1
f 31/3/1 27/3/1 26/3/1
f 31/3/1 29/3/1 28/3/1
f 31/3/1 28/3/1 27/3/1
f 31/3/1 25/3/1 24/3/1
f 31/3/1 26/3/1 25/3/1
f 32/3/1 29/3/1 31/3/1
f 37/1/1 34/1/1 33/1/1
f 38/1/1 34/1/1 37/1/1
f 39/1/1 36/1/1 35/1/1
f 40/1/1 36/1/1 39/1/1
f 42/1/1 37/1/1 33/1/1
f 43/1/1 37/1/1 42/1/1
f 44/1/1 36/1/1 40/1/1
f 45/1/1 36/1/1 44/1/1
f 47/2/1 42/2/1 41/2/1
f 48/2/1 42/2/1 47/2/1
f 51/2/1 46/2/1 45/2/1
f 52/2/1 46/2/1 51/2/1
f 53/3/1 49/3/1 48/3/1
f 54/3/1 49/3/1 53/3/1
f 55/3/1 51/3/1 50/3/1
f 56/3/1 51/3/1 55/3/1
f 57/4/1 55/4/1 54/4/1
f 58/4/1 55/4/1 57/4/1
f 63/1/1 60/1/1 59/1/1
f 64/1/1 60/1/1 63/1/1
f 65/1/1 62/1/1 61/1/1
f 66/1/1 62/1/1 65/1/1
f 71/3/1 68/3/1 67/3/1
f 72/3/1 68/3/1 71/3/1
f 75/3/1 70/3/1 69/3/1
f 76/3/1 70/3/1 75/3/1
f 77/4/1 73/4/1 72/4/1
f 78/4/1 73/4/1 77/4/1
f 79/4/1 75/4/1 74/4/1
f 80/4/1 75/4/1 79/4/1
f 83/6/1 82/6/1 81/6/1
f 84/6/1 82/6/1 83/6/1
f 89/1/1 86/1/1 85/1/1
f 90/1/1 86/1/1 89/1/1
f 91/1/1 88/1/1 87/1/1
f 92/1/1 88/1/1 91/1/1
f 97/6/1 94/6/1 93/6/1
f 98/6/1 94/6/1 97/6/1
f 99/6/1 96/6/1 95/6/1
f 100/6/1 96/6/1 99/6/1
f 101/6/1 99/6/1 98/6/1
f 102/6/1 99/6/1 101/6/1
f 103/6/2 104/6/2 107/6/2
f 107/6/2 104/6/2 108/6/2
f 105/6/2 106/6/2 109/6/2
f 109/6/2 106/6/2 110/6/2
f 108/6/2 109/6/2 111/6/2
f 111/6/2 109/6/2 112/6/2
f 113/6/2 114/6/2 115/6/2
f 115/6/2 114/6/2 116/6/2
f 117/1/2 118/1/2 121/1/2
f 121/1/2 118/1/2 122/1/2
f 119/1/2 120/1/2 123/1/2
f 123/1/2 120/1/2 124/1/2
f 125/1/2 126/1/2 129/1/2
f 129/1/2 126/1/2 130/1/2
f 127/1/2 128/1/2 131/1/2
f 131/1/2 128/1/2 132/1/2
f 133/3/2 134/3/2 137/3/2
f 137/3/2 134/3/2 138/3/2
f 135/3/2 136/3/2 141/3/2
f 141/3/2 136/3/2 142/3/2
f 138/4/2 139/4/2 143/4/2
f 143/4/2 139/4/2 144/4/2
f 140/4/2 141/4/2 145/4/2
f 145/4/2 141/4/2 146/4/2
f 147/1/2 148/1/2 151/1/2
f 151/1/2 148/1/2 152/1/2
f 149/1/2 150/1/2 153/1/2
f 153/1/2 150/1/2 154/1/2
f 147/1/2 151/1/2 156/1/2
f 156/1/2 151/1/2 157/1/2
f 154/1/2 150/1/2 158/1/2
f 158/1/2 150/1/2 159/1/2
f 155/2/2 156/2/2 161/2/2
f 161/2/2 156/2/2 162/2/2
f 159/2/2 160/2/2 165/2/2
f 165/2/2 160/2/2 166/2/2
f 162/3/2 163/3/2 167/3/2
f 167/3/2 163/3/2 168/3/2
f 164/3/2 165/3/2 169/3/2
f 169/3/2 165/3/2 170/3/2
f 168/4/2 169/4/2 171/4/2
f 171/4/2 169/4/2 172/4/2
f 173/1/2 174/1/2 176/1/2
f 176/1/2 174/1/2 177/1/2
f 175/1/2 176/1/2 179/1/2
f 177/1/2 178/1/2 179/1/2
f 176/1/2 177/1/2 179/1/2
f 179/1/2 178/1/2 180/1/2
f 180/1/2 178/1/2 181/1/2
f 181/1/2 178/1/2 182/1/2
f 175/1/2 179/1/2 184/1/2
f 179/2/2 180/2/2 185/2/2
f 184/1/2 179/1/2 185/1/2
f 180/1/2 181/1/2 186/1/2
f 185/2/2 180/2/2 186/2/2
f 181/2/2 182/2/2 187/2/2
f 186/1/2 181/1/2 187/1/2
f 182/1/2 178/1/2 188/1/2
f 187/2/2 182/2/2 188/2/2
f 188/1/2 178/1/2 189/1/2
f 186/2/2 187/2/2 191/2/2
f 189/2/2 190/2/2 191/2/2
f 188/2/2 189/2/2 191/2/2
f 187/2/2 188/2/2 191/2/2
f 183/2/2 184/2/2 191/2/2
f 185/2/2 186/2/2 191/2/2
f 184/2/2 185/2/2 191/2/2
f 191/2/2 190/2/2 192/2/2
f 192/2/2 190/2/2 193/2/2
f 193/2/2 190/2/2 194/2/2
f 183/2/2 191/2/2 195/2/2
f 195/2/2 191/2/2 196/2/2
f 191/3/2 192/3/2 197/3/2
f 196/2/2 191/2/2 197/2/2
f 192/2/2 193/2/2 198/2/2
f 197/3/2 192/3/2 198/3/2
f 193/3/2 194/3/2 199/3/2
f 198/2/2 193/2/2 199/2/2
f 194/2/2 190/2/2 200/2/2
f 199/3/2 194/3/2 200/3/2
f 200/2/2 190/2/2 201/2/2
f 201/2/2 190/2/2 202/2/2
f 198/3/2 199/3/2 203/3/2
f 200/3/2 201/3/2 203/3/2
f 199/3/2 200/3/2 203/3/2
f 196/3/2 197/3/2 203/3/2
f 197/3/2 198/3/2 203/3/2
f 203/3/2 201/3/2 204/3/2
f 208/2/3 206/2/3 205/2/3
f 209/2/3 206/2/3 208/2/3
f 212/1/3 208/1/3 207/1/3
f 213/1/3 208/1/3 212/1/3
f 214/2/3 209/2/3 208/2/3
f 214/1/3 208/1/3 213/1/3
f 215/2/3 209/2/3 214/2/3
f 216/3/3 210/3/3 209/3/3
f 216/2/3 209/2/3 215/2/3
f 217/2/3 215/2/3 214/2/3
f 217/1/3 213/1/3 212/1/3
f 217/1/3 212/1/3 211/1/3
f 217/2/3 214/2/3 213/2/3
f 218/2/3 215/2/3 217/2/3
f 219/3/3 216/3/3 215/3/3
f 219/2/3 215/2/3 218/2/3
f 220/3/3 210/3/3 216/3/3
f 220/3/3 216/3/3 219/3/3
f 221/1/3 218/1/3 217/1/3
f 221/1/3 217/1/3 211/1/3
f 222/2/3 219/2/3 218/2/3
f 222/1/3 218/1/3 221/1/3
f 222/2/3 220/2/3 219/2/3
f 223/2/3 220/2/3 222/2/3
f 224/3/3 210/3/3 220/3/3
f 224/2/3 220/2/3 223/2/3
f 225/1/3 221/1/3 211/1/3
f 226/1/3 221/1/3 225/1/3
f 227/2/3 223/2/3 222/2/3
f 227/1/3 221/1/3 226/1/3
f 227/2/3 222/2/3 221/2/3
f 228/2/3 223/2/3 227/2/3
f 229/3/3 224/3/3 223/3/3
f 229/2/3 223/2/3 228/2/3
f 230/3/3 210/3/3 224/3/3
f 230/3/3 224/3/3 229/3/3
f 231/1/3 228/1/3 227/1/3
f 231/1/3 227/1/3 226/1/3
f 232/2/3 229/2/3 228/2/3
f 232/1/3 228/1/3 231/1/3
f 232/2/3 230/2/3 229/2/3
f 233/3/3 210/3/3 230/3/3
f 233/2/3 230/2/3 232/2/3
f 234/3/3 210/3/3 233/3/3
f 235/2/3 233/2/3 232/2/3
f 236/2/3 233/2/3 235/2/3
f 240/2/3 238/2/3 237/2/3
f 241/2/3 238/2/3 240/2/3
f 243/1/3 240/1/3 239/1/3
f 244/1/3 240/1/3 243/1/3
f 245/3/3 242/3/3 241/3/3
f 246/3/3 242/3/3 245/3/3
f 248/1/3 243/1/3 239/1/3
f 249/1/3 243/1/3 248/1/3
f 252/1/3 251/1/3 250/1/3
f 255/4/3 247/4/3 246/4/3
f 256/4/3 247/4/3 255/4/3
f 257/1/3 253/1/3 252/1/3
f 257/1/3 252/1/3 250/1/3
f 258/1/3 253/1/3 257/1/3
f 259/3/3 255/3/3 254/3/3
f 260/3/3 255/3/3 259/3/3
f 261/2/3 259/2/3 258/2/3
f 262/2/3 259/2/3 261/2/3
f 267/1/3 264/1/3 263/1/3
f 268/1/3 264/1/3 267/1/3
f 269/3/3 266/3/3 265/3/3
f 270/3/3 266/3/3 269/3/3
f 272/4/3 271/4/3 270/4/3
f 273/4/3 271/4/3 272/4/3
f 279/4/3 275/4/3 274/4/3
f 280/4/3 275/4/3 279/4/3
f 281/1/3 277/1/3 276/1/3
f 282/1/3 277/1/3 281/1/3
f 283/3/3 279/3/3 278/3/3
f 284/3/3 279/3/3 283/3/3
f 287/1/3 286/1/3 285/1/3
f 288/1/3 286/1/3 287/1/3
f 291/6/3 290/6/3 289/6/3
f 292/6/3 290/6/3 291/6/3
f 295/1/3 294/1/3 293/1/3
f 296/1/3 294/1/3 295/1/3
f 299/6/3 298/6/3 297/6/3
f 300/6/3 298/6/3 299/6/3
f 303/6/3 301/6/3 300/6/3
f 304/6/3 301/6/3 303/6/3
f 305/6/3 303/6/3 302/6/3
f 306/6/3 303/6/3 305/6/3
f 307/6/4 308/6/4 309/6/4
f 309/6/4 308/6/4 310/6/4
f 310/6/4 311/6/4 313/6/4
f 313/6/4 311/6/4 314/6/4
f 312/6/4 313/6/4 315/6/4
f 315/6/4 313/6/4 316/6/4
f 317/1/4 318/1/4 319/1/4
f 319/1/4 318/1/4 320/1/4
f 321/6/4 322/6/4 323/6/4
f 323/6/4 322/6/4 324/6/4
f 325/1/4 326/1/4 327/1/4
f 327/1/4 326/1/4 328/1/4
f 329/1/4 330/1/4 333/1/4
f 333/1/4 330/1/4 334/1/4
f 331/3/4 332/3/4 335/3/4
f 335/3/4 332/3/4 336/3/4
f 336/4/4 337/4/4 338/4/4
f 338/4/4 337/4/4 339/4/4
f 340/4/4 341/4/4 345/4/4
f 345/4/4 341/4/4 346/4/4
f 342/1/4 343/1/4 347/1/4
f 347/1/4 343/1/4 348/1/4
f 344/3/4 345/3/4 349/3/4
f 349/3/4 345/3/4 350/3/4
f 351/2/4 352/2/4 354/2/4
f 354/2/4 352/2/4 355/2/4
f 353/1/4 354/1/4 357/1/4
f 357/1/4 354/1/4 358/1/4
f 355/3/4 356/3/4 359/3/4
f 359/3/4 356/3/4 360/3/4
f 353/1/4 357/1/4 362/1/4
f 362/1/4 357/1/4 363/1/4
f 364/1/4 365/1/4 366/1/4
f 360/4/4 361/4/4 369/4/4
f 369/4/4 361/4/4 370/4/4
f 366/1/4 367/1/4 371/1/4
f 364/1/4 366/1/4 371/1/4
f 371/1/4 367/1/4 372/1/4
f 368/3/4 369/3/4 373/3/4
f 373/3/4 369/3/4 374/3/4
f 372/2/4 373/2/4 375/2/4
f 375/2/4 373/2/4 376/2/4
f 377/2/4 378/2/4 380/2/4
f 380/2/4 378/2/4 381/2/4
f 379/1/4 380/1/4 384/1/4
f 384/1/4 380/1/4 385/1/4
f 380/2/4 381/2/4 386/2/4
f 385/1/4 380/1/4 386/1/4
f 386/2/4 381/2/4 387/2/4
f 381/3/4 382/3/4 388/3/4
f 387/2/4 381/2/4 388/2/4
f 386/2/4 387/2/4 389/2/4
f 384/1/4 385/1/4 389/1/4
f 383/1/4 384/1/4 389/1/4
f 385/2/4 386/2/4 389/2/4
f 389/2/4 387/2/4 390/2/4
f 387/3/4 388/3/4 391/3/4
f 390/2/4 387/2/4 391/2/4
f 388/3/4 382/3/4 392/3/4
f 391/3/4 388/3/4 392/3/4
f 389/1/4 390/1/4 393/1/4
f 383/1/4 389/1/4 393/1/4
f 390/2/4 391/2/4 394/2/4
f 393/1/4 390/1/4 394/1/4
f 391/2/4 392/2/4 394/2/4
f 394/2/4 392/2/4 395/2/4
f 392/3/4 382/3/4 396/3/4
f 395/2/4 392/2/4 396/2/4
f 383/1/4 393/1/4 397/1/4
f 397/1/4 393/1/4 398/1/4
f 394/2/4 395/2/4 399/2/4
f 398/1/4 393/1/4 399/1/4
f 393/2/4 394/2/4 399/2/4
f 399/2/4 395/2/4 400/2/4
f 395/3/4 396/3/4 401/3/4
f 400/2/4 395/2/4 401/2/4
f 396/3/4 382/3/4 402/3/4
f 401/3/4 396/3/4 402/3/4
f 399/1/4 400/1/4 403/1/4
f 398/1/4 399/1/4 403/1/4
f 400/2/4 401/2/4 404/2/4
f 403/1/4 400/1/4 404/1/4
f 401/2/4 402/2/4 404/2/4
f 402/3/4 382/3/4 405/3/4
f 404/2/4 402/2/4 405/2/4
f 405/3/4 382/3/4 406/3/4
f 404/2/4 405/2/4 407/2/4
f 407/2/4 405/2/4 408/2/4
f 412/6/5 410/6/5 409/6/5
f 413/6/5 410/6/5 412/6/5
f 415/6/5 412/6/5 411/6/5
f 415/6/5 414/6/5 413/6/5
f 415/6/5 413/6/5 412/6/5
f 416/6/5 414/6/5 415/6/5
f 417/6/5 414/6/5 416/6/5
f 418/6/5 414/6/5 417/6/5
f 419/6/5 417/6/5 416/6/5
f 420/6/5 417/6/5 419/6/5
f 424/1/5 422/1/5 421/1/5
f 425/1/5 422/1/5 424/1/5
f 428/1/5 424/1/5 423/1/5
f 428/1/5 426/1/5 425/1/5
f 428/1/5 425/1/5 424/1/5
f 429/1/5 426/1/5 428/1/5
f 431/1/5 428/1/5 427/1/5
f 431/1/5 430/1/5 429/1/5
f 431/1/5 429/1/5 428/1/5
f 432/1/5 430/1/5 431/1/5
f 433/1/5 431/1/5 427/1/5
f 434/1/5 430/1/5 432/1/5
f 435/1/5 433/1/5 427/1/5
f 435/1/5 434/1/5 433/1/5
f 436/1/5 434/1/5 435/1/5
f 437/1/5 430/1/5 434/1/5
f 437/1/5 434/1/5 436/1/5
f 438/1/5 430/1/5 437/1/5
f 439/1/5 437/1/5 436/1/5
f 440/1/5 437/1/5 439/1/5
f 441/1/5 437/1/5 440/1/5
f 442/1/5 437/1/5 441/1/5
f 443/1/5 441/1/5 440/1/5
f 444/1/5 441/1/5 443/1/5
f 449/1/5 446/1/5 445/1/5
f 450/1/5 446/1/5 449/1/5
f 451/1/5 448/1/5 447/1/5
f 452/1/5 448/1/5 451/1/5
f 457/1/5 454/1/5 453/1/5
f 458/1/5 454/1/5 457/1/5
f 459/1/5 456/1/5 455/1/5
f 460/1/5 456/1/5 459/1/5
f 465/1/5 462/1/5 461/1/5
f 466/1/5 462/1/5 465/1/5
f 467/1/5 464/1/5 463/1/5
f 468/1/5 464/1/5 467/1/5
f 473/1/5 470/1/5 469/1/5
f 474/1/5 470/1/5 473/1/5
f 475/1/5 472/1/5 471/1/5
f 476/1/5 472/1/5 475/1/5
f 482/2/5 478/2/5 477/2/5
f 483/2/5 478/2/5 482/2/5
f 484/2/5 480/2/5 479/2/5
f 485/2/5 480/2/5 484/2/5
f 487/2/5 482/2/5 481/2/5
f 488/2/5 482/2/5 487/2/5
f 489/2/5 486/2/5 485/2/5
f 490/2/5 486/2/5 489/2/5
f 495/2/5 492/2/5 491/2/5
f 496/2/5 492/2/5 495/2/5
f 499/2/5 494/2/5 493/2/5
f 500/2/5 494/2/5 499/2/5
f 501/2/5 497/2/5 496/2/5
f 502/2/5 497/2/5 501/2/5
f 503/2/5 499/2/5 498/2/5
f 504/2/5 499/2/5 503/2/5
f 505/6/6 506/6/6 508/6/6
f 508/6/6 506/6/6 509/6/6
f 507/6/6 508/6/6 511/6/6
f 511/6/6 508/6/6 512/6/6
f 509/6/6 510/6/6 513/6/6
f 513/6/6 510/6/6 514/6/6
f 512/6/6 513/6/6 515/6/6
f 515/6/6 513/6/6 516/6/6
f 517/2/6 518/2/6 522/2/6
f 522/2/6 518/2/6 523/2/6
f 519/2/6 520/2/6 524/2/6
f 524/2/6 520/2/6 525/2/6
f 521/2/6 522/2/6 527/2/6
f 527/2/6 522/2/6 528/2/6
f 525/2/6 526/2/6 529/2/6
f 529/2/6 526/2/6 530/2/6
f 531/2/6 532/2/6 535/2/6
f 535/2/6 532/2/6 536/2/6
f 533/2/6 534/2/6 539/2/6
f 539/2/6 534/2/6 540/2/6
f 536/2/6 537/2/6 541/2/6
f 541/2/6 537/2/6 542/2/6
f 538/2/6 539/2/6 543/2/6
f 543/2/6 539/2/6 544/2/6
f 545/3/6 546/3/6 548/3/6
f 548/3/6 546/3/6 549/3/6
f 547/3/6 548/3/6 552/3/6
f 552/3/6 548/3/6 553/3/6
f 549/3/6 550/3/6 554/3/6
f 554/3/6 550/3/6 555/3/6
f 551/3/6 552/3/6 557/3/6
f 557/3/6 552/3/6 558/3/6
f 555/3/6 556/3/6 561/3/6
f 561/3/6 556/3/6 562/3/6
f 558/3/6 559/3/6 563/3/6
f 563/3/6 559/3/6 564/3/6
f 560/3/6 561/3/6 565/3/6
f 565/3/6 561/3/6 566/3/6
f 564/3/6 565/3/6 567/3/6
f 567/3/6 565/3/6 568/3/6
f 569/4/6 570/4/6 572/4/6
f 572/4/6 570/4/6 573/4/6
f 571/4/6 572/4/6 575/4/6
f 572/3/6 573/3/6 576/3/6
f 575/4/6 572/4/6 576/4/6
f 573/4/6 574/4/6 577/4/6
f 576/3/6 573/3/6 577/3/6
f 577/4/6 574/4/6 578/4/6
f 576/4/6 577/4/6 579/4/6
f 579/4/6 577/4/6 580/4/6
