# MagicaVoxel @ Ephtracy

# group
o 

# material
mtllib Stone Fence Pole.mtl
usemtl palette

# normals
vn -1 0 0
vn 1 0 0
vn 0 0 1
vn 0 0 -1
vn 0 -1 0
vn 0 1 0

# texcoords
vt 0.509766 0.5
vt 0.525391 0.5
vt 0.533203 0.5
vt 0.599609 0.5
vt 0.626953 0.5
vt 0.654297 0.5
vt 0.720703 0.5
vt 0.724609 0.5
vt 0.728516 0.5
vt 0.732422 0.5
vt 0.736328 0.5
vt 0.740234 0.5

# verts
v -0.4 0.7 0.4
v -0.4 0.7 -0.4
v -0.4 0.8 0.4
v -0.4 0.8 0.3
v -0.4 0.8 -0.3
v -0.4 0.8 -0.4
v -0.4 0.9 -0.1
v -0.4 0.9 -0.3
v -0.4 1 -0.1
v -0.4 1 -0.3
v -0.4 1.3 0.1
v -0.4 1.3 -0.3
v -0.4 1.4 0.1
v -0.4 1.4 -0.3
v -0.4 1.6 0.1
v -0.4 1.6 0
v -0.4 1.7 0
v -0.4 1.7 -0.3
v -0.4 2 0.2
v -0.4 2 0.1
v -0.4 2.1 0.2
v -0.4 2.1 0.1
v -0.4 2.7 0.3
v -0.4 2.7 -0.3
v -0.4 2.8 0.4
v -0.4 2.8 -0.4
v -0.3 2.8 0.3
v -0.3 2.8 -0.3
v -0.3 2.9 0.3
v -0.3 2.9 -0.3
v 0.3 2.8 0.3
v 0.3 2.8 -0.3
v 0.3 2.9 0.3
v 0.3 2.9 -0.3
v 0.4 0.7 0.4
v 0.4 0.7 -0.4
v 0.4 0.8 0.4
v 0.4 0.8 0.3
v 0.4 0.8 -0.3
v 0.4 0.8 -0.4
v 0.4 0.9 0.2
v 0.4 0.9 0.1
v 0.4 1 0.2
v 0.4 1 0.1
v 0.4 1.2 0.1
v 0.4 1.2 -0.3
v 0.4 1.5 0.1
v 0.4 1.5 -0.3
v 0.4 2.5 -0.2
v 0.4 2.5 -0.3
v 0.4 2.6 -0.2
v 0.4 2.6 -0.3
v 0.4 2.7 0.3
v 0.4 2.7 -0.3
v 0.4 2.8 0.4
v 0.4 2.8 -0.4
v -0.4 0.7 0.4
v -0.4 0.8 0.4
v -0.4 2.8 0.4
v -0.3 0.8 0.4
v -0.3 2.7 0.4
v 0 1.1 0.4
v 0 1.2 0.4
v 0 1.9 0.4
v 0 2 0.4
v 0 2.1 0.4
v 0.1 1.1 0.4
v 0.1 1.2 0.4
v 0.2 1.9 0.4
v 0.2 2 0.4
v 0.2 2.1 0.4
v 0.3 0.8 0.4
v 0.3 2.7 0.4
v 0.4 0.7 0.4
v 0.4 0.8 0.4
v 0.4 2.8 0.4
v -0.3 2.8 0.3
v -0.3 2.9 0.3
v 0.3 2.8 0.3
v 0.3 2.9 0.3
v -0.3 2.8 -0.3
v -0.3 2.9 -0.3
v 0.3 2.8 -0.3
v 0.3 2.9 -0.3
v -0.4 0.7 -0.4
v -0.4 0.8 -0.4
v -0.4 2.8 -0.4
v -0.3 0.8 -0.4
v -0.3 2.7 -0.4
v -0.2 2.3 -0.4
v -0.2 2.4 -0.4
v -0.1 2.3 -0.4
v -0.1 2.4 -0.4
v -0.1 2.5 -0.4
v -0.1 2.6 -0.4
v 0 2.5 -0.4
v 0 2.6 -0.4
v 0.3 0.8 -0.4
v 0.3 2.7 -0.4
v 0.4 0.7 -0.4
v 0.4 0.8 -0.4
v 0.4 2.8 -0.4
v -0.4 0.7 0.4
v 0.4 0.7 0.4
v -0.3 0.7 0.2
v -0.2 0.7 0.2
v -0.3 0.7 0
v -0.2 0.7 0
v -0.4 0.7 -0.4
v 0.4 0.7 -0.4
v -0.4 2.8 0.4
v 0.4 2.8 0.4
v -0.3 2.8 0.3
v 0.3 2.8 0.3
v -0.3 2.8 -0.3
v 0.3 2.8 -0.3
v -0.4 2.8 -0.4
v 0.4 2.8 -0.4
v -0.3 2.9 0.3
v 0.3 2.9 0.3
v -0.2 2.9 0.2
v 0.2 2.9 0.2
v -0.2 2.9 -0.2
v 0.2 2.9 -0.2
v -0.3 2.9 -0.3
v 0.3 2.9 -0.3

# faces
f 3/12/1 2/12/1 1/12/1
f 4/12/1 2/12/1 3/12/1
f 5/12/1 2/12/1 4/12/1
f 6/12/1 2/12/1 5/12/1
f 7/8/1 5/8/1 4/8/1
f 8/7/1 6/7/1 5/7/1
f 8/8/1 5/8/1 7/8/1
f 9/8/1 7/8/1 4/8/1
f 9/10/1 8/10/1 7/10/1
f 10/7/1 6/7/1 8/7/1
f 10/10/1 8/10/1 9/10/1
f 11/8/1 9/8/1 4/8/1
f 11/8/1 10/8/1 9/8/1
f 12/7/1 6/7/1 10/7/1
f 12/8/1 10/8/1 11/8/1
f 13/8/1 11/8/1 4/8/1
f 13/10/1 12/10/1 11/10/1
f 14/7/1 6/7/1 12/7/1
f 14/10/1 12/10/1 13/10/1
f 15/8/1 13/8/1 4/8/1
f 15/9/1 14/9/1 13/9/1
f 16/9/1 14/9/1 15/9/1
f 17/8/1 16/8/1 15/8/1
f 17/9/1 14/9/1 16/9/1
f 18/7/1 6/7/1 14/7/1
f 18/9/1 14/9/1 17/9/1
f 19/8/1 17/8/1 15/8/1
f 19/8/1 15/8/1 4/8/1
f 19/8/1 18/8/1 17/8/1
f 20/8/1 18/8/1 19/8/1
f 21/8/1 19/8/1 4/8/1
f 21/10/1 20/10/1 19/10/1
f 22/8/1 18/8/1 20/8/1
f 22/10/1 20/10/1 21/10/1
f 23/7/1 4/7/1 3/7/1
f 23/8/1 21/8/1 4/8/1
f 23/8/1 22/8/1 21/8/1
f 24/8/1 18/8/1 22/8/1
f 24/8/1 22/8/1 23/8/1
f 24/7/1 6/7/1 18/7/1
f 25/7/1 23/7/1 3/7/1
f 25/7/1 24/7/1 23/7/1
f 26/7/1 6/7/1 24/7/1
f 26/7/1 24/7/1 25/7/1
f 29/7/1 28/7/1 27/7/1
f 30/7/1 28/7/1 29/7/1
f 31/7/2 32/7/2 33/7/2
f 33/7/2 32/7/2 34/7/2
f 35/12/2 36/12/2 37/12/2
f 37/12/2 36/12/2 38/12/2
f 38/12/2 36/12/2 39/12/2
f 39/12/2 36/12/2 40/12/2
f 38/8/2 39/8/2 41/8/2
f 41/8/2 39/8/2 42/8/2
f 38/8/2 41/8/2 43/8/2
f 41/11/2 42/11/2 43/11/2
f 42/8/2 39/8/2 44/8/2
f 43/11/2 42/11/2 44/11/2
f 43/8/2 44/8/2 45/8/2
f 44/8/2 39/8/2 45/8/2
f 39/7/2 40/7/2 46/7/2
f 45/8/2 39/8/2 46/8/2
f 43/8/2 45/8/2 47/8/2
f 45/11/2 46/11/2 47/11/2
f 46/7/2 40/7/2 48/7/2
f 47/11/2 46/11/2 48/11/2
f 47/8/2 48/8/2 49/8/2
f 48/7/2 40/7/2 50/7/2
f 49/8/2 48/8/2 50/8/2
f 47/8/2 49/8/2 51/8/2
f 49/7/2 50/7/2 51/7/2
f 50/7/2 40/7/2 52/7/2
f 51/7/2 50/7/2 52/7/2
f 37/7/2 38/7/2 53/7/2
f 43/8/2 47/8/2 53/8/2
f 51/8/2 52/8/2 53/8/2
f 47/8/2 51/8/2 53/8/2
f 38/8/2 43/8/2 53/8/2
f 52/7/2 40/7/2 54/7/2
f 53/8/2 52/8/2 54/8/2
f 37/7/2 53/7/2 55/7/2
f 53/7/2 54/7/2 55/7/2
f 54/7/2 40/7/2 56/7/2
f 55/7/2 54/7/2 56/7/2
f 60/12/3 58/12/3 57/12/3
f 60/7/3 59/7/3 58/7/3
f 61/7/3 59/7/3 60/7/3
f 62/8/3 61/8/3 60/8/3
f 63/8/3 61/8/3 62/8/3
f 64/8/3 61/8/3 63/8/3
f 65/8/3 61/8/3 64/8/3
f 66/8/3 61/8/3 65/8/3
f 67/8/3 62/8/3 60/8/3
f 67/11/3 63/11/3 62/11/3
f 68/8/3 64/8/3 63/8/3
f 68/11/3 63/11/3 67/11/3
f 69/9/3 65/9/3 64/9/3
f 69/8/3 64/8/3 68/8/3
f 69/8/3 68/8/3 67/8/3
f 70/10/3 66/10/3 65/10/3
f 70/9/3 65/9/3 69/9/3
f 71/8/3 61/8/3 66/8/3
f 71/10/3 66/10/3 70/10/3
f 72/12/3 60/12/3 57/12/3
f 72/8/3 70/8/3 69/8/3
f 72/8/3 71/8/3 70/8/3
f 72/8/3 67/8/3 60/8/3
f 72/8/3 69/8/3 67/8/3
f 73/8/3 61/8/3 71/8/3
f 73/8/3 71/8/3 72/8/3
f 73/7/3 59/7/3 61/7/3
f 74/12/3 72/12/3 57/12/3
f 75/7/3 73/7/3 72/7/3
f 75/12/3 72/12/3 74/12/3
f 76/7/3 59/7/3 73/7/3
f 76/7/3 73/7/3 75/7/3
f 79/7/3 78/7/3 77/7/3
f 80/7/3 78/7/3 79/7/3
f 81/7/4 82/7/4 83/7/4
f 83/7/4 82/7/4 84/7/4
f 85/12/4 86/12/4 88/12/4
f 86/7/4 87/7/4 88/7/4
f 88/7/4 87/7/4 89/7/4
f 88/8/4 89/8/4 90/8/4
f 90/8/4 89/8/4 91/8/4
f 88/8/4 90/8/4 92/8/4
f 90/10/4 91/10/4 92/10/4
f 91/8/4 89/8/4 93/8/4
f 92/10/4 91/10/4 93/10/4
f 93/8/4 89/8/4 94/8/4
f 94/8/4 89/8/4 95/8/4
f 92/8/4 93/8/4 96/8/4
f 93/8/4 94/8/4 96/8/4
f 94/10/4 95/10/4 96/10/4
f 95/8/4 89/8/4 97/8/4
f 96/10/4 95/10/4 97/10/4
f 85/12/4 88/12/4 98/12/4
f 88/8/4 92/8/4 98/8/4
f 96/8/4 97/8/4 98/8/4
f 92/8/4 96/8/4 98/8/4
f 97/8/4 89/8/4 99/8/4
f 98/8/4 97/8/4 99/8/4
f 89/7/4 87/7/4 99/7/4
f 85/12/4 98/12/4 100/12/4
f 98/7/4 99/7/4 101/7/4
f 100/12/4 98/12/4 101/12/4
f 99/7/4 87/7/4 102/7/4
f 101/7/4 99/7/4 102/7/4
f 105/12/5 104/12/5 103/12/5
f 106/12/5 104/12/5 105/12/5
f 107/12/5 105/12/5 103/12/5
f 107/4/5 106/4/5 105/4/5
f 108/12/5 104/12/5 106/12/5
f 108/4/5 106/4/5 107/4/5
f 109/12/5 107/12/5 103/12/5
f 109/12/5 108/12/5 107/12/5
f 110/12/5 104/12/5 108/12/5
f 110/12/5 108/12/5 109/12/5
f 111/7/6 112/7/6 113/7/6
f 113/7/6 112/7/6 114/7/6
f 111/7/6 113/7/6 115/7/6
f 114/7/6 112/7/6 116/7/6
f 111/7/6 115/7/6 117/7/6
f 115/7/6 116/7/6 117/7/6
f 116/7/6 112/7/6 118/7/6
f 117/7/6 116/7/6 118/7/6
f 119/7/6 120/7/6 121/7/6
f 121/7/6 120/7/6 122/7/6
f 119/7/6 121/7/6 123/7/6
f 121/8/6 122/8/6 123/8/6
f 122/7/6 120/7/6 124/7/6
f 123/8/6 122/8/6 124/8/6
f 119/7/6 123/7/6 125/7/6
f 123/7/6 124/7/6 125/7/6
f 124/7/6 120/7/6 126/7/6
f 125/7/6 124/7/6 126/7/6
