# MagicaVoxel @ Ephtracy

# group
o 

# material
mtllib Stone Head.mtl
usemtl palette

# normals
vn -1 0 0
vn 1 0 0
vn 0 0 1
vn 0 0 -1
vn 0 -1 0
vn 0 1 0

# texcoords
vt 0.00195312 0.5
vt 0.720703 0.5
vt 0.736328 0.5
vt 0.740234 0.5
vt 0.947266 0.5
vt 0.978516 0.5
vt 0.982422 0.5

# verts
v -0.5 1.3 0.8
v -0.5 1.3 0.6
v -0.5 1.6 0.8
v -0.5 1.6 0.6
v -0.5 2.3 0.8
v -0.5 2.3 0.6
v -0.4 1.8 0.3
v -0.4 1.8 0.1
v -0.4 1.8 0
v -0.4 1.9 0.4
v -0.4 1.9 0.3
v -0.4 2.2 0.2
v -0.4 2.2 0.1
v -0.4 2.3 0.5
v -0.4 2.3 0.4
v -0.4 2.3 0.2
v -0.4 2.3 0.1
v -0.4 2.3 0
v -0.4 2.4 0.5
v -0.4 2.4 0.1
v -0.3 1.6 0.6
v -0.3 1.6 0.3
v -0.3 1.6 -0.1
v -0.3 1.7 0.6
v -0.3 1.7 0.3
v -0.3 1.7 -0.1
v -0.3 1.7 -0.5
v -0.3 1.8 0.3
v -0.3 1.8 0.1
v -0.3 1.8 0
v -0.3 1.8 -0.2
v -0.3 1.8 -0.4
v -0.3 1.8 -0.5
v -0.3 1.9 0.4
v -0.3 1.9 0.3
v -0.3 1.9 0
v -0.3 1.9 -0.1
v -0.3 1.9 -0.2
v -0.3 2 0.6
v -0.3 2 0.4
v -0.3 2 -0.2
v -0.3 2 -0.4
v -0.3 2.1 0.6
v -0.3 2.1 0.4
v -0.3 2.1 0
v -0.3 2.1 -0.1
v -0.3 2.1 -0.5
v -0.2 1.3 -0.1
v -0.2 1.3 -0.6
v -0.2 1.4 0
v -0.2 1.4 -0.1
v -0.2 1.4 -0.3
v -0.2 1.4 -0.6
v -0.2 1.5 0.6
v -0.2 1.5 0
v -0.2 1.6 0.6
v -0.2 1.6 0.3
v -0.2 1.6 0
v -0.2 1.6 -0.1
v -0.2 1.6 -0.7
v -0.2 1.6 -0.8
v -0.2 1.7 -0.1
v -0.2 1.7 -0.3
v -0.2 1.7 -0.5
v -0.2 1.7 -0.7
v -0.2 1.7 -0.8
v -0.2 1.8 -0.2
v -0.2 1.8 -0.4
v -0.2 1.8 -0.5
v -0.2 1.8 -0.8
v -0.2 1.9 -0.2
v -0.2 1.9 -0.6
v -0.2 1.9 -0.7
v -0.2 2 -0.2
v -0.2 2 -0.4
v -0.2 2 -0.6
v -0.2 2 -0.7
v -0.2 2 -0.8
v -0.2 2.1 0.5
v -0.2 2.1 -0.1
v -0.2 2.1 -0.4
v -0.2 2.1 -0.5
v -0.2 2.1 -0.6
v -0.2 2.1 -0.8
v -0.2 2.2 0.5
v -0.2 2.2 -0.4
v -0.1 1.3 -0.6
v -0.1 1.3 -0.7
v -0.1 1.4 0.6
v -0.1 1.4 0
v -0.1 1.4 -0.6
v -0.1 1.4 -0.7
v -0.1 1.5 0.6
v -0.1 1.5 0
v -0.1 1.5 -0.6
v -0.1 1.5 -0.7
v -0.1 1.9 -0.6
v -0.1 1.9 -0.7
v -0.1 2 -0.6
v -0.1 2 -0.7
v -0.1 2.2 0.3
v -0.1 2.2 0.1
v -0.1 2.2 -0.1
v -0.1 2.2 -0.3
v -0.1 2.3 0.3
v -0.1 2.3 0.1
v -0.1 2.3 -0.1
v -0.1 2.3 -0.3
v 0.1 1.6 -0.7
v 0.1 1.6 -0.8
v 0.1 1.7 -0.7
v 0.1 1.7 -0.8
v 0.3 2.1 0.4
v 0.3 2.1 0.1
v 0.3 2.1 0
v 0.3 2.2 0.2
v 0.3 2.2 0.1
v 0.3 2.3 0.5
v 0.3 2.3 0.4
v 0.3 2.3 0.2
v 0.3 2.3 0.1
v 0.3 2.3 0
v 0.3 2.4 0.5
v 0.3 2.4 0.1
v -0.3 2.1 0.4
v -0.3 2.1 0.1
v -0.3 2.1 0
v -0.3 2.2 0.2
v -0.3 2.2 0.1
v -0.3 2.3 0.5
v -0.3 2.3 0.4
v -0.3 2.3 0.2
v -0.3 2.3 0.1
v -0.3 2.3 0
v -0.3 2.4 0.5
v -0.3 2.4 0.1
v -0.1 1.6 -0.7
v -0.1 1.6 -0.8
v -0.1 1.7 -0.7
v -0.1 1.7 -0.8
v 0.1 1.3 -0.6
v 0.1 1.3 -0.7
v 0.1 1.4 0.6
v 0.1 1.4 0
v 0.1 1.4 -0.6
v 0.1 1.4 -0.7
v 0.1 1.5 0.6
v 0.1 1.5 0
v 0.1 1.5 -0.6
v 0.1 1.5 -0.7
v 0.1 1.9 -0.6
v 0.1 1.9 -0.7
v 0.1 2 -0.6
v 0.1 2 -0.7
v 0.1 2.2 0.3
v 0.1 2.2 0.1
v 0.1 2.2 -0.1
v 0.1 2.2 -0.3
v 0.1 2.3 0.3
v 0.1 2.3 0.1
v 0.1 2.3 -0.1
v 0.1 2.3 -0.3
v 0.2 1.3 -0.1
v 0.2 1.3 -0.6
v 0.2 1.4 0
v 0.2 1.4 -0.1
v 0.2 1.4 -0.3
v 0.2 1.4 -0.6
v 0.2 1.5 0.6
v 0.2 1.5 0
v 0.2 1.6 0.6
v 0.2 1.6 0.3
v 0.2 1.6 0
v 0.2 1.6 -0.1
v 0.2 1.6 -0.7
v 0.2 1.6 -0.8
v 0.2 1.7 -0.1
v 0.2 1.7 -0.3
v 0.2 1.7 -0.5
v 0.2 1.7 -0.7
v 0.2 1.7 -0.8
v 0.2 1.8 -0.2
v 0.2 1.8 -0.4
v 0.2 1.8 -0.5
v 0.2 1.8 -0.8
v 0.2 1.9 -0.2
v 0.2 1.9 -0.6
v 0.2 1.9 -0.7
v 0.2 2 -0.2
v 0.2 2 -0.4
v 0.2 2 -0.6
v 0.2 2 -0.7
v 0.2 2 -0.8
v 0.2 2.1 0.5
v 0.2 2.1 -0.1
v 0.2 2.1 -0.4
v 0.2 2.1 -0.5
v 0.2 2.1 -0.6
v 0.2 2.1 -0.8
v 0.2 2.2 0.5
v 0.2 2.2 -0.4
v 0.3 1.6 0.6
v 0.3 1.6 0.3
v 0.3 1.6 -0.1
v 0.3 1.7 0.6
v 0.3 1.7 0.3
v 0.3 1.7 -0.1
v 0.3 1.7 -0.5
v 0.3 1.8 0.3
v 0.3 1.8 0.1
v 0.3 1.8 0
v 0.3 1.8 -0.2
v 0.3 1.8 -0.4
v 0.3 1.8 -0.5
v 0.3 1.9 0.4
v 0.3 1.9 0.3
v 0.3 1.9 0
v 0.3 1.9 -0.1
v 0.3 1.9 -0.2
v 0.3 2 0.6
v 0.3 2 0.4
v 0.3 2 -0.2
v 0.3 2 -0.4
v 0.3 2.1 0.6
v 0.3 2.1 0.4
v 0.3 2.1 0
v 0.3 2.1 -0.1
v 0.3 2.1 -0.5
v 0.4 1.8 0.3
v 0.4 1.8 0.1
v 0.4 1.8 0
v 0.4 1.9 0.4
v 0.4 1.9 0.3
v 0.4 2.2 0.2
v 0.4 2.2 0.1
v 0.4 2.3 0.5
v 0.4 2.3 0.4
v 0.4 2.3 0.2
v 0.4 2.3 0.1
v 0.4 2.3 0
v 0.4 2.4 0.5
v 0.4 2.4 0.1
v 0.5 1.3 0.8
v 0.5 1.3 0.6
v 0.5 1.6 0.8
v 0.5 1.6 0.6
v 0.5 2.3 0.8
v 0.5 2.3 0.6
v -0.5 1.3 0.8
v -0.5 1.6 0.8
v -0.5 2.3 0.8
v 0.5 1.3 0.8
v 0.5 1.6 0.8
v 0.5 2.3 0.8
v -0.4 2.3 0.5
v -0.4 2.4 0.5
v -0.3 2.3 0.5
v -0.3 2.4 0.5
v -0.2 2.1 0.5
v -0.2 2.2 0.5
v -0.1 2.1 0.5
v -0.1 2.2 0.5
v 0.1 2.1 0.5
v 0.1 2.2 0.5
v 0.2 2.1 0.5
v 0.2 2.2 0.5
v 0.3 2.3 0.5
v 0.3 2.4 0.5
v 0.4 2.3 0.5
v 0.4 2.4 0.5
v -0.4 1.9 0.4
v -0.4 2.3 0.4
v -0.3 1.9 0.4
v -0.3 2 0.4
v -0.3 2.1 0.4
v -0.3 2.3 0.4
v 0.3 1.9 0.4
v 0.3 2 0.4
v 0.3 2.1 0.4
v 0.3 2.3 0.4
v 0.4 1.9 0.4
v 0.4 2.3 0.4
v -0.4 1.8 0.3
v -0.4 1.9 0.3
v -0.3 1.8 0.3
v -0.3 1.9 0.3
v -0.1 2.2 0.3
v -0.1 2.3 0.3
v 0.1 2.2 0.3
v 0.1 2.3 0.3
v 0.3 1.8 0.3
v 0.3 1.9 0.3
v 0.4 1.8 0.3
v 0.4 1.9 0.3
v -0.2 1.4 0
v -0.2 1.5 0
v -0.1 1.4 0
v -0.1 1.5 0
v 0.1 1.4 0
v 0.1 1.5 0
v 0.2 1.4 0
v 0.2 1.5 0
v -0.2 1.3 -0.1
v -0.2 1.4 -0.1
v -0.1 2.2 -0.1
v -0.1 2.3 -0.1
v 0.1 2.2 -0.1
v 0.1 2.3 -0.1
v 0.2 1.3 -0.1
v 0.2 1.4 -0.1
v -0.3 1.8 -0.4
v -0.3 2 -0.4
v -0.2 1.8 -0.4
v -0.2 2 -0.4
v 0.2 1.8 -0.4
v 0.2 2 -0.4
v 0.3 1.8 -0.4
v 0.3 2 -0.4
v -0.1 1.4 -0.6
v -0.1 1.5 -0.6
v 0.1 1.4 -0.6
v 0.1 1.5 -0.6
v -0.2 1.6 -0.7
v -0.2 1.7 -0.7
v -0.2 1.9 -0.7
v -0.2 2 -0.7
v -0.1 1.6 -0.7
v -0.1 1.7 -0.7
v -0.1 1.9 -0.7
v -0.1 2 -0.7
v 0.1 1.6 -0.7
v 0.1 1.7 -0.7
v 0.1 1.9 -0.7
v 0.1 2 -0.7
v 0.2 1.6 -0.7
v 0.2 1.7 -0.7
v 0.2 1.9 -0.7
v 0.2 2 -0.7
v -0.5 1.3 0.6
v -0.5 1.6 0.6
v -0.5 2.3 0.6
v -0.4 1.4 0.6
v -0.4 1.6 0.6
v -0.4 2.2 0.6
v -0.3 1.6 0.6
v -0.3 1.7 0.6
v -0.3 2 0.6
v -0.3 2.1 0.6
v -0.2 1.5 0.6
v -0.2 1.6 0.6
v -0.1 1.4 0.6
v -0.1 1.5 0.6
v 0.1 1.4 0.6
v 0.1 1.5 0.6
v 0.2 1.5 0.6
v 0.2 1.6 0.6
v 0.3 1.6 0.6
v 0.3 1.7 0.6
v 0.3 2 0.6
v 0.3 2.1 0.6
v 0.4 1.4 0.6
v 0.4 1.6 0.6
v 0.4 2.2 0.6
v 0.5 1.3 0.6
v 0.5 1.6 0.6
v 0.5 2.3 0.6
v -0.4 2.3 0.1
v -0.4 2.4 0.1
v -0.3 2.3 0.1
v -0.3 2.4 0.1
v -0.1 2.2 0.1
v -0.1 2.3 0.1
v 0.1 2.2 0.1
v 0.1 2.3 0.1
v 0.3 2.3 0.1
v 0.3 2.4 0.1
v 0.4 2.3 0.1
v 0.4 2.4 0.1
v -0.4 1.8 0
v -0.4 2.3 0
v -0.3 1.8 0
v -0.3 1.9 0
v -0.3 2.1 0
v -0.3 2.3 0
v 0.3 1.8 0
v 0.3 1.9 0
v 0.3 2.1 0
v 0.3 2.3 0
v 0.4 1.8 0
v 0.4 2.3 0
v -0.3 1.6 -0.1
v -0.3 1.7 -0.1
v -0.2 1.6 -0.1
v -0.2 1.7 -0.1
v 0.2 1.6 -0.1
v 0.2 1.7 -0.1
v 0.3 1.6 -0.1
v 0.3 1.7 -0.1
v -0.3 1.8 -0.2
v -0.3 1.9 -0.2
v -0.3 2 -0.2
v -0.2 1.8 -0.2
v -0.2 1.9 -0.2
v -0.2 2 -0.2
v 0.2 1.8 -0.2
v 0.2 1.9 -0.2
v 0.2 2 -0.2
v 0.3 1.8 -0.2
v 0.3 1.9 -0.2
v 0.3 2 -0.2
v -0.2 1.4 -0.3
v -0.2 1.7 -0.3
v -0.1 1.5 -0.3
v -0.1 1.7 -0.3
v -0.1 2.2 -0.3
v -0.1 2.3 -0.3
v 0.1 1.5 -0.3
v 0.1 1.7 -0.3
v 0.1 2.2 -0.3
v 0.1 2.3 -0.3
v 0.2 1.4 -0.3
v 0.2 1.7 -0.3
v -0.2 2.1 -0.4
v -0.2 2.2 -0.4
v -0.1 2.1 -0.4
v -0.1 2.2 -0.4
v 0.1 2.1 -0.4
v 0.1 2.2 -0.4
v 0.2 2.1 -0.4
v 0.2 2.2 -0.4
v -0.3 1.7 -0.5
v -0.3 1.8 -0.5
v -0.3 2.1 -0.5
v -0.2 1.7 -0.5
v -0.2 1.8 -0.5
v -0.2 2.1 -0.5
v 0.2 1.7 -0.5
v 0.2 1.8 -0.5
v 0.2 2.1 -0.5
v 0.3 1.7 -0.5
v 0.3 1.8 -0.5
v 0.3 2.1 -0.5
v -0.2 1.3 -0.6
v -0.2 1.4 -0.6
v -0.2 1.9 -0.6
v -0.2 2 -0.6
v -0.1 1.3 -0.6
v -0.1 1.4 -0.6
v -0.1 1.9 -0.6
v -0.1 2 -0.6
v 0.1 1.3 -0.6
v 0.1 1.4 -0.6
v 0.1 1.9 -0.6
v 0.1 2 -0.6
v 0.2 1.3 -0.6
v 0.2 1.4 -0.6
v 0.2 1.9 -0.6
v 0.2 2 -0.6
v -0.1 1.3 -0.7
v -0.1 1.4 -0.7
v -0.1 1.5 -0.7
v 0.1 1.3 -0.7
v 0.1 1.4 -0.7
v 0.1 1.5 -0.7
v -0.2 1.6 -0.8
v -0.2 1.7 -0.8
v -0.2 1.8 -0.8
v -0.2 2 -0.8
v -0.2 2.1 -0.8
v -0.1 1.6 -0.8
v -0.1 1.7 -0.8
v -0.1 1.8 -0.8
v -0.1 2 -0.8
v 0.1 1.6 -0.8
v 0.1 1.7 -0.8
v 0.1 1.8 -0.8
v 0.1 2 -0.8
v 0.2 1.6 -0.8
v 0.2 1.7 -0.8
v 0.2 1.8 -0.8
v 0.2 2 -0.8
v 0.2 2.1 -0.8
v -0.5 1.3 0.8
v 0.5 1.3 0.8
v -0.5 1.3 0.6
v 0.5 1.3 0.6
v -0.2 1.3 -0.1
v 0.2 1.3 -0.1
v -0.2 1.3 -0.6
v -0.1 1.3 -0.6
v 0.1 1.3 -0.6
v 0.2 1.3 -0.6
v -0.1 1.3 -0.7
v 0.1 1.3 -0.7
v -0.1 1.4 0.6
v 0.1 1.4 0.6
v -0.2 1.4 0
v -0.1 1.4 0
v 0.1 1.4 0
v 0.2 1.4 0
v -0.2 1.4 -0.1
v 0.2 1.4 -0.1
v -0.2 1.5 0.6
v -0.1 1.5 0.6
v 0.1 1.5 0.6
v 0.2 1.5 0.6
v -0.2 1.5 0
v -0.1 1.5 0
v 0.1 1.5 0
v 0.2 1.5 0
v -0.3 1.6 0.6
v -0.2 1.6 0.6
v 0.2 1.6 0.6
v 0.3 1.6 0.6
v -0.3 1.6 0.3
v -0.2 1.6 0.3
v 0.2 1.6 0.3
v 0.3 1.6 0.3
v -0.2 1.6 0
v 0.2 1.6 0
v -0.3 1.6 -0.1
v -0.2 1.6 -0.1
v 0.2 1.6 -0.1
v 0.3 1.6 -0.1
v -0.2 1.6 -0.7
v -0.1 1.6 -0.7
v 0.1 1.6 -0.7
v 0.2 1.6 -0.7
v -0.2 1.6 -0.8
v -0.1 1.6 -0.8
v 0.1 1.6 -0.8
v 0.2 1.6 -0.8
v -0.3 1.7 -0.1
v -0.2 1.7 -0.1
v 0.2 1.7 -0.1
v 0.3 1.7 -0.1
v -0.2 1.7 -0.3
v -0.1 1.7 -0.3
v 0.1 1.7 -0.3
v 0.2 1.7 -0.3
v -0.3 1.7 -0.5
v -0.2 1.7 -0.5
v 0.2 1.7 -0.5
v 0.3 1.7 -0.5
v -0.2 1.7 -0.7
v -0.1 1.7 -0.7
v 0.1 1.7 -0.7
v 0.2 1.7 -0.7
v -0.1 1.7 -0.8
v 0.1 1.7 -0.8
v -0.4 1.8 0.3
v -0.3 1.8 0.3
v 0.3 1.8 0.3
v 0.4 1.8 0.3
v -0.4 1.8 0.1
v -0.3 1.8 0.1
v 0.3 1.8 0.1
v 0.4 1.8 0.1
v -0.4 1.8 0
v -0.3 1.8 0
v 0.3 1.8 0
v 0.4 1.8 0
v -0.4 1.9 0.4
v -0.3 1.9 0.4
v 0.3 1.9 0.4
v 0.4 1.9 0.4
v -0.4 1.9 0.3
v -0.3 1.9 0.3
v 0.3 1.9 0.3
v 0.4 1.9 0.3
v -0.3 2 -0.2
v -0.2 2 -0.2
v 0.2 2 -0.2
v 0.3 2 -0.2
v -0.3 2 -0.4
v -0.2 2 -0.4
v 0.2 2 -0.4
v 0.3 2 -0.4
v -0.2 2 -0.6
v -0.1 2 -0.6
v 0.1 2 -0.6
v 0.2 2 -0.6
v -0.2 2 -0.7
v -0.1 2 -0.7
v 0.1 2 -0.7
v 0.2 2 -0.7
v -0.4 2.3 0.5
v -0.3 2.3 0.5
v 0.3 2.3 0.5
v 0.4 2.3 0.5
v -0.4 2.3 0.4
v -0.3 2.3 0.4
v 0.3 2.3 0.4
v 0.4 2.3 0.4
v -0.2 1.4 -0.3
v 0.2 1.4 -0.3
v -0.2 1.4 -0.6
v -0.1 1.4 -0.6
v 0.1 1.4 -0.6
v 0.2 1.4 -0.6
v -0.1 1.5 -0.6
v 0.1 1.5 -0.6
v -0.1 1.5 -0.7
v 0.1 1.5 -0.7
v -0.3 1.8 -0.2
v -0.2 1.8 -0.2
v 0.2 1.8 -0.2
v 0.3 1.8 -0.2
v -0.3 1.8 -0.4
v -0.2 1.8 -0.4
v 0.2 1.8 -0.4
v 0.3 1.8 -0.4
v -0.2 1.9 -0.6
v -0.1 1.9 -0.6
v 0.1 1.9 -0.6
v 0.2 1.9 -0.6
v -0.2 1.9 -0.7
v -0.1 1.9 -0.7
v 0.1 1.9 -0.7
v 0.2 1.9 -0.7
v -0.3 2.1 0.6
v 0.3 2.1 0.6
v -0.2 2.1 0.5
v -0.1 2.1 0.5
v 0.1 2.1 0.5
v 0.2 2.1 0.5
v -0.3 2.1 0.4
v 0.3 2.1 0.4
v -0.3 2.1 0.1
v 0.3 2.1 0.1
v -0.3 2.1 0
v 0.3 2.1 0
v -0.3 2.1 -0.1
v -0.2 2.1 -0.1
v 0.2 2.1 -0.1
v 0.3 2.1 -0.1
v -0.2 2.1 -0.4
v -0.1 2.1 -0.4
v 0.1 2.1 -0.4
v 0.2 2.1 -0.4
v -0.3 2.1 -0.5
v -0.2 2.1 -0.5
v 0.2 2.1 -0.5
v 0.3 2.1 -0.5
v -0.2 2.1 -0.6
v -0.1 2.1 -0.6
v 0.1 2.1 -0.6
v 0.2 2.1 -0.6
v -0.2 2.1 -0.8
v 0.2 2.1 -0.8
v -0.2 2.2 0.5
v -0.1 2.2 0.5
v 0.1 2.2 0.5
v 0.2 2.2 0.5
v -0.1 2.2 0.3
v 0.1 2.2 0.3
v -0.1 2.2 0.1
v 0.1 2.2 0.1
v -0.1 2.2 -0.1
v 0.1 2.2 -0.1
v -0.1 2.2 -0.3
v 0.1 2.2 -0.3
v -0.2 2.2 -0.4
v -0.1 2.2 -0.4
v 0.1 2.2 -0.4
v 0.2 2.2 -0.4
v -0.5 2.3 0.8
v 0.5 2.3 0.8
v -0.5 2.3 0.6
v 0.5 2.3 0.6
v -0.1 2.3 0.3
v 0.1 2.3 0.3
v -0.4 2.3 0.1
v -0.3 2.3 0.1
v -0.1 2.3 0.1
v 0.1 2.3 0.1
v 0.3 2.3 0.1
v 0.4 2.3 0.1
v -0.4 2.3 0
v -0.3 2.3 0
v 0.3 2.3 0
v 0.4 2.3 0
v -0.1 2.3 -0.1
v 0.1 2.3 -0.1
v -0.1 2.3 -0.3
v 0.1 2.3 -0.3
v -0.4 2.4 0.5
v -0.3 2.4 0.5
v 0.3 2.4 0.5
v 0.4 2.4 0.5
v -0.4 2.4 0.1
v -0.3 2.4 0.1
v 0.3 2.4 0.1
v 0.4 2.4 0.1

# faces
f 3/4/1 2/4/1 1/4/1
f 4/4/1 2/4/1 3/4/1
f 5/3/1 4/3/1 3/3/1
f 6/3/1 4/3/1 5/3/1
f 11/2/1 8/2/1 7/2/1
f 12/2/1 8/2/1 11/2/1
f 12/2/1 11/2/1 10/2/1
f 13/6/1 9/6/1 8/6/1
f 13/2/1 8/2/1 12/2/1
f 15/2/1 12/2/1 10/2/1
f 16/6/1 13/6/1 12/6/1
f 16/2/1 12/2/1 15/2/1
f 17/6/1 9/6/1 13/6/1
f 17/6/1 13/6/1 16/6/1
f 18/6/1 9/6/1 17/6/1
f 19/6/1 16/6/1 15/6/1
f 19/6/1 15/6/1 14/6/1
f 19/6/1 17/6/1 16/6/1
f 20/6/1 17/6/1 19/6/1
f 24/7/1 22/7/1 21/7/1
f 25/3/1 23/3/1 22/3/1
f 25/7/1 22/7/1 24/7/1
f 26/3/1 23/3/1 25/3/1
f 28/3/1 25/3/1 24/3/1
f 28/3/1 27/3/1 26/3/1
f 28/3/1 26/3/1 25/3/1
f 29/3/1 27/3/1 28/3/1
f 30/3/1 27/3/1 29/3/1
f 31/3/1 27/3/1 30/3/1
f 32/3/1 27/3/1 31/3/1
f 33/3/1 27/3/1 32/3/1
f 34/3/1 28/3/1 24/3/1
f 35/3/1 28/3/1 34/3/1
f 36/3/1 31/3/1 30/3/1
f 37/3/1 31/3/1 36/3/1
f 38/3/1 31/3/1 37/3/1
f 39/3/1 34/3/1 24/3/1
f 40/3/1 34/3/1 39/3/1
f 41/6/1 38/6/1 37/6/1
f 42/6/1 33/6/1 32/6/1
f 43/2/1 40/2/1 39/2/1
f 44/2/1 40/2/1 43/2/1
f 45/2/1 37/2/1 36/2/1
f 46/6/1 41/6/1 37/6/1
f 46/2/1 37/2/1 45/2/1
f 46/6/1 42/6/1 41/6/1
f 47/6/1 33/6/1 42/6/1
f 47/6/1 42/6/1 46/6/1
f 51/4/1 49/4/1 48/4/1
f 52/4/1 49/4/1 51/4/1
f 53/4/1 49/4/1 52/4/1
f 55/4/1 51/4/1 50/4/1
f 55/4/1 52/4/1 51/4/1
f 56/7/1 55/7/1 54/7/1
f 57/7/1 55/7/1 56/7/1
f 58/4/1 52/4/1 55/4/1
f 58/7/1 55/7/1 57/7/1
f 59/4/1 52/4/1 58/4/1
f 62/4/1 52/4/1 59/4/1
f 63/4/1 52/4/1 62/4/1
f 65/6/1 61/6/1 60/6/1
f 66/6/1 61/6/1 65/6/1
f 69/3/1 65/3/1 64/3/1
f 69/3/1 66/3/1 65/3/1
f 70/3/1 66/3/1 69/3/1
f 71/5/1 68/5/1 67/5/1
f 72/2/1 70/2/1 69/2/1
f 73/2/1 70/2/1 72/2/1
f 74/5/1 68/5/1 71/5/1
f 75/5/1 68/5/1 74/5/1
f 76/2/1 72/2/1 69/2/1
f 77/2/1 70/2/1 73/2/1
f 78/2/1 70/2/1 77/2/1
f 82/2/1 76/2/1 69/2/1
f 83/6/1 77/6/1 76/6/1
f 83/2/1 76/2/1 82/2/1
f 83/6/1 78/6/1 77/6/1
f 84/6/1 78/6/1 83/6/1
f 85/2/1 81/2/1 80/2/1
f 85/2/1 80/2/1 79/2/1
f 86/2/1 81/2/1 85/2/1
f 91/4/1 88/4/1 87/4/1
f 92/4/1 88/4/1 91/4/1
f 93/1/1 90/1/1 89/1/1
f 94/1/1 90/1/1 93/1/1
f 95/6/1 92/6/1 91/6/1
f 96/6/1 92/6/1 95/6/1
f 99/2/1 98/2/1 97/2/1
f 100/2/1 98/2/1 99/2/1
f 105/6/1 102/6/1 101/6/1
f 106/6/1 102/6/1 105/6/1
f 107/6/1 104/6/1 103/6/1
f 108/6/1 104/6/1 107/6/1
f 111/6/1 110/6/1 109/6/1
f 112/6/1 110/6/1 111/6/1
f 116/2/1 114/2/1 113/2/1
f 117/6/1 115/6/1 114/6/1
f 117/2/1 114/2/1 116/2/1
f 119/2/1 116/2/1 113/2/1
f 120/6/1 117/6/1 116/6/1
f 120/2/1 116/2/1 119/2/1
f 121/6/1 115/6/1 117/6/1
f 121/6/1 117/6/1 120/6/1
f 122/6/1 115/6/1 121/6/1
f 123/6/1 120/6/1 119/6/1
f 123/6/1 119/6/1 118/6/1
f 123/6/1 121/6/1 120/6/1
f 124/6/1 121/6/1 123/6/1
f 125/2/2 126/2/2 128/2/2
f 126/6/2 127/6/2 129/6/2
f 128/2/2 126/2/2 129/2/2
f 125/2/2 128/2/2 131/2/2
f 128/6/2 129/6/2 132/6/2
f 131/2/2 128/2/2 132/2/2
f 129/6/2 127/6/2 133/6/2
f 132/6/2 129/6/2 133/6/2
f 133/6/2 127/6/2 134/6/2
f 131/6/2 132/6/2 135/6/2
f 130/6/2 131/6/2 135/6/2
f 132/6/2 133/6/2 135/6/2
f 135/6/2 133/6/2 136/6/2
f 137/6/2 138/6/2 139/6/2
f 139/6/2 138/6/2 140/6/2
f 141/4/2 142/4/2 145/4/2
f 145/4/2 142/4/2 146/4/2
f 143/1/2 144/1/2 147/1/2
f 147/1/2 144/1/2 148/1/2
f 145/6/2 146/6/2 149/6/2
f 149/6/2 146/6/2 150/6/2
f 151/2/2 152/2/2 153/2/2
f 153/2/2 152/2/2 154/2/2
f 155/6/2 156/6/2 159/6/2
f 159/6/2 156/6/2 160/6/2
f 157/6/2 158/6/2 161/6/2
f 161/6/2 158/6/2 162/6/2
f 163/4/2 164/4/2 166/4/2
f 166/4/2 164/4/2 167/4/2
f 167/4/2 164/4/2 168/4/2
f 165/4/2 166/4/2 170/4/2
f 166/4/2 167/4/2 170/4/2
f 169/7/2 170/7/2 171/7/2
f 171/7/2 170/7/2 172/7/2
f 170/4/2 167/4/2 173/4/2
f 172/7/2 170/7/2 173/7/2
f 173/4/2 167/4/2 174/4/2
f 174/4/2 167/4/2 177/4/2
f 177/4/2 167/4/2 178/4/2
f 175/6/2 176/6/2 180/6/2
f 180/6/2 176/6/2 181/6/2
f 179/3/2 180/3/2 184/3/2
f 180/3/2 181/3/2 184/3/2
f 184/3/2 181/3/2 185/3/2
f 182/5/2 183/5/2 186/5/2
f 184/2/2 185/2/2 187/2/2
f 187/2/2 185/2/2 188/2/2
f 186/5/2 183/5/2 189/5/2
f 189/5/2 183/5/2 190/5/2
f 184/2/2 187/2/2 191/2/2
f 188/2/2 185/2/2 192/2/2
f 192/2/2 185/2/2 193/2/2
f 184/2/2 191/2/2 197/2/2
f 191/6/2 192/6/2 198/6/2
f 197/2/2 191/2/2 198/2/2
f 192/6/2 193/6/2 198/6/2
f 198/6/2 193/6/2 199/6/2
f 195/2/2 196/2/2 200/2/2
f 194/2/2 195/2/2 200/2/2
f 200/2/2 196/2/2 201/2/2
f 202/7/2 203/7/2 205/7/2
f 203/3/2 204/3/2 206/3/2
f 205/7/2 203/7/2 206/7/2
f 206/3/2 204/3/2 207/3/2
f 205/3/2 206/3/2 209/3/2
f 207/3/2 208/3/2 209/3/2
f 206/3/2 207/3/2 209/3/2
f 209/3/2 208/3/2 210/3/2
f 210/3/2 208/3/2 211/3/2
f 211/3/2 208/3/2 212/3/2
f 212/3/2 208/3/2 213/3/2
f 213/3/2 208/3/2 214/3/2
f 205/3/2 209/3/2 215/3/2
f 215/3/2 209/3/2 216/3/2
f 211/3/2 212/3/2 217/3/2
f 217/3/2 212/3/2 218/3/2
f 218/3/2 212/3/2 219/3/2
f 205/3/2 215/3/2 220/3/2
f 220/3/2 215/3/2 221/3/2
f 218/6/2 219/6/2 222/6/2
f 213/6/2 214/6/2 223/6/2
f 220/2/2 221/2/2 224/2/2
f 224/2/2 221/2/2 225/2/2
f 217/2/2 218/2/2 226/2/2
f 218/6/2 222/6/2 227/6/2
f 226/2/2 218/2/2 227/2/2
f 222/6/2 223/6/2 227/6/2
f 223/6/2 214/6/2 228/6/2
f 227/6/2 223/6/2 228/6/2
f 229/2/2 230/2/2 233/2/2
f 233/2/2 230/2/2 234/2/2
f 232/2/2 233/2/2 234/2/2
f 230/6/2 231/6/2 235/6/2
f 234/2/2 230/2/2 235/2/2
f 232/2/2 234/2/2 237/2/2
f 234/6/2 235/6/2 238/6/2
f 237/2/2 234/2/2 238/2/2
f 235/6/2 231/6/2 239/6/2
f 238/6/2 235/6/2 239/6/2
f 239/6/2 231/6/2 240/6/2
f 237/6/2 238/6/2 241/6/2
f 236/6/2 237/6/2 241/6/2
f 238/6/2 239/6/2 241/6/2
f 241/6/2 239/6/2 242/6/2
f 243/4/2 244/4/2 245/4/2
f 245/4/2 244/4/2 246/4/2
f 245/3/2 246/3/2 247/3/2
f 247/3/2 246/3/2 248/3/2
f 252/4/3 250/4/3 249/4/3
f 253/3/3 251/3/3 250/3/3
f 253/4/3 250/4/3 252/4/3
f 254/3/3 251/3/3 253/3/3
f 257/6/3 256/6/3 255/6/3
f 258/6/3 256/6/3 257/6/3
f 261/2/3 260/2/3 259/2/3
f 262/2/3 260/2/3 261/2/3
f 263/6/3 262/6/3 261/6/3
f 264/6/3 262/6/3 263/6/3
f 265/2/3 264/2/3 263/2/3
f 266/2/3 264/2/3 265/2/3
f 269/6/3 268/6/3 267/6/3
f 270/6/3 268/6/3 269/6/3
f 273/2/3 272/2/3 271/2/3
f 274/2/3 272/2/3 273/2/3
f 275/2/3 272/2/3 274/2/3
f 276/2/3 272/2/3 275/2/3
f 281/2/3 278/2/3 277/2/3
f 281/2/3 280/2/3 279/2/3
f 281/2/3 279/2/3 278/2/3
f 282/2/3 280/2/3 281/2/3
f 285/2/3 284/2/3 283/2/3
f 286/2/3 284/2/3 285/2/3
f 289/6/3 288/6/3 287/6/3
f 290/6/3 288/6/3 289/6/3
f 293/2/3 292/2/3 291/2/3
f 294/2/3 292/2/3 293/2/3
f 297/4/3 296/4/3 295/4/3
f 298/4/3 296/4/3 297/4/3
f 301/4/3 300/4/3 299/4/3
f 302/4/3 300/4/3 301/4/3
f 307/6/3 306/6/3 305/6/3
f 308/6/3 306/6/3 307/6/3
f 309/4/3 304/4/3 303/4/3
f 310/4/3 304/4/3 309/4/3
f 313/6/3 312/6/3 311/6/3
f 314/6/3 312/6/3 313/6/3
f 317/6/3 316/6/3 315/6/3
f 318/6/3 316/6/3 317/6/3
f 321/6/3 320/6/3 319/6/3
f 322/6/3 320/6/3 321/6/3
f 327/6/3 324/6/3 323/6/3
f 328/6/3 324/6/3 327/6/3
f 329/2/3 326/2/3 325/2/3
f 330/2/3 326/2/3 329/2/3
f 335/6/3 332/6/3 331/6/3
f 336/6/3 332/6/3 335/6/3
f 337/2/3 334/2/3 333/2/3
f 338/2/3 334/2/3 337/2/3
f 339/4/4 340/4/4 342/4/4
f 340/3/4 341/3/4 343/3/4
f 342/4/4 340/4/4 343/4/4
f 343/3/4 341/3/4 344/3/4
f 342/1/4 343/1/4 345/1/4
f 343/7/4 344/7/4 345/7/4
f 345/7/4 344/7/4 346/7/4
f 346/7/4 344/7/4 347/7/4
f 347/7/4 344/7/4 348/7/4
f 342/1/4 345/1/4 349/1/4
f 349/1/4 345/1/4 350/1/4
f 339/4/4 342/4/4 351/4/4
f 342/1/4 349/1/4 351/1/4
f 351/1/4 349/1/4 352/1/4
f 339/4/4 351/4/4 353/4/4
f 353/1/4 354/1/4 355/1/4
f 355/1/4 356/1/4 357/1/4
f 348/7/4 344/7/4 360/7/4
f 355/1/4 357/1/4 361/1/4
f 353/1/4 355/1/4 361/1/4
f 339/4/4 353/4/4 361/4/4
f 359/7/4 360/7/4 362/7/4
f 361/1/4 357/1/4 362/1/4
f 358/7/4 359/7/4 362/7/4
f 357/7/4 358/7/4 362/7/4
f 344/3/4 341/3/4 363/3/4
f 362/7/4 360/7/4 363/7/4
f 360/7/4 344/7/4 363/7/4
f 339/4/4 361/4/4 364/4/4
f 361/4/4 362/4/4 364/4/4
f 362/3/4 363/3/4 365/3/4
f 364/4/4 362/4/4 365/4/4
f 363/3/4 341/3/4 366/3/4
f 365/3/4 363/3/4 366/3/4
f 367/6/4 368/6/4 369/6/4
f 369/6/4 368/6/4 370/6/4
f 371/6/4 372/6/4 373/6/4
f 373/6/4 372/6/4 374/6/4
f 375/6/4 376/6/4 377/6/4
f 377/6/4 376/6/4 378/6/4
f 379/6/4 380/6/4 381/6/4
f 381/6/4 380/6/4 382/6/4
f 382/6/4 380/6/4 383/6/4
f 383/6/4 380/6/4 384/6/4
f 385/6/4 386/6/4 389/6/4
f 387/6/4 388/6/4 389/6/4
f 386/6/4 387/6/4 389/6/4
f 389/6/4 388/6/4 390/6/4
f 391/3/4 392/3/4 393/3/4
f 393/3/4 392/3/4 394/3/4
f 395/3/4 396/3/4 397/3/4
f 397/3/4 396/3/4 398/3/4
f 399/3/4 400/3/4 402/3/4
f 400/6/4 401/6/4 403/6/4
f 402/3/4 400/3/4 403/3/4
f 403/6/4 401/6/4 404/6/4
f 405/3/4 406/3/4 408/3/4
f 406/6/4 407/6/4 409/6/4
f 408/3/4 406/3/4 409/3/4
f 409/6/4 407/6/4 410/6/4
f 411/4/4 412/4/4 413/4/4
f 413/4/4 412/4/4 414/4/4
f 411/4/4 413/4/4 417/4/4
f 413/7/4 414/7/4 417/7/4
f 417/7/4 414/7/4 418/7/4
f 415/6/4 416/6/4 419/6/4
f 419/6/4 416/6/4 420/6/4
f 417/4/4 418/4/4 421/4/4
f 411/4/4 417/4/4 421/4/4
f 421/4/4 418/4/4 422/4/4
f 423/2/4 424/2/4 425/2/4
f 425/2/4 424/2/4 426/2/4
f 425/6/4 426/6/4 427/6/4
f 427/6/4 426/6/4 428/6/4
f 427/2/4 428/2/4 429/2/4
f 429/2/4 428/2/4 430/2/4
f 431/3/4 432/3/4 434/3/4
f 432/6/4 433/6/4 435/6/4
f 434/3/4 432/3/4 435/3/4
f 435/6/4 433/6/4 436/6/4
f 437/3/4 438/3/4 440/3/4
f 438/6/4 439/6/4 441/6/4
f 440/3/4 438/3/4 441/3/4
f 441/6/4 439/6/4 442/6/4
f 443/4/4 444/4/4 447/4/4
f 447/4/4 444/4/4 448/4/4
f 445/2/4 446/2/4 449/2/4
f 449/2/4 446/2/4 450/2/4
f 451/4/4 452/4/4 455/4/4
f 455/4/4 452/4/4 456/4/4
f 453/2/4 454/2/4 457/2/4
f 457/2/4 454/2/4 458/2/4
f 459/4/4 460/4/4 462/4/4
f 460/6/4 461/6/4 463/6/4
f 462/4/4 460/4/4 463/4/4
f 463/6/4 461/6/4 464/6/4
f 465/6/4 466/6/4 470/6/4
f 466/3/4 467/3/4 471/3/4
f 470/6/4 466/6/4 471/6/4
f 467/2/4 468/2/4 472/2/4
f 471/3/4 467/3/4 472/3/4
f 468/6/4 469/6/4 473/6/4
f 472/2/4 468/2/4 473/2/4
f 471/3/4 472/3/4 475/3/4
f 472/6/4 473/6/4 476/6/4
f 475/3/4 472/3/4 476/3/4
f 473/6/4 469/6/4 477/6/4
f 476/6/4 473/6/4 477/6/4
f 474/6/4 475/6/4 478/6/4
f 475/3/4 476/3/4 479/3/4
f 478/6/4 475/6/4 479/6/4
f 476/2/4 477/2/4 480/2/4
f 479/3/4 476/3/4 480/3/4
f 477/6/4 469/6/4 481/6/4
f 480/2/4 477/2/4 481/2/4
f 481/6/4 469/6/4 482/6/4
f 485/4/5 484/4/5 483/4/5
f 486/4/5 484/4/5 485/4/5
f 489/4/5 488/4/5 487/4/5
f 490/4/5 488/4/5 489/4/5
f 491/4/5 488/4/5 490/4/5
f 492/4/5 488/4/5 491/4/5
f 493/4/5 491/4/5 490/4/5
f 494/4/5 491/4/5 493/4/5
f 498/1/5 496/1/5 495/1/5
f 499/1/5 496/1/5 498/1/5
f 501/4/5 498/4/5 497/4/5
f 501/4/5 500/4/5 499/4/5
f 501/4/5 499/4/5 498/4/5
f 502/4/5 500/4/5 501/4/5
f 507/7/5 504/7/5 503/7/5
f 508/7/5 504/7/5 507/7/5
f 509/7/5 506/7/5 505/7/5
f 510/7/5 506/7/5 509/7/5
f 515/7/5 512/7/5 511/7/5
f 516/7/5 512/7/5 515/7/5
f 517/7/5 514/7/5 513/7/5
f 518/7/5 514/7/5 517/7/5
f 519/3/5 516/3/5 515/3/5
f 520/3/5 518/3/5 517/3/5
f 521/3/5 519/3/5 515/3/5
f 522/3/5 519/3/5 521/3/5
f 523/3/5 518/3/5 520/3/5
f 524/3/5 518/3/5 523/3/5
f 529/6/5 526/6/5 525/6/5
f 530/6/5 526/6/5 529/6/5
f 531/6/5 528/6/5 527/6/5
f 532/6/5 528/6/5 531/6/5
f 537/3/5 534/3/5 533/3/5
f 540/3/5 536/3/5 535/3/5
f 541/3/5 537/3/5 533/3/5
f 541/3/5 538/3/5 537/3/5
f 542/3/5 538/3/5 541/3/5
f 543/3/5 540/3/5 539/3/5
f 543/3/5 536/3/5 540/3/5
f 544/3/5 536/3/5 543/3/5
f 545/3/5 538/3/5 542/3/5
f 546/7/5 539/7/5 538/7/5
f 546/3/5 538/3/5 545/3/5
f 547/3/5 543/3/5 539/3/5
f 547/7/5 539/7/5 546/7/5
f 548/3/5 543/3/5 547/3/5
f 549/3/5 547/3/5 546/3/5
f 550/3/5 547/3/5 549/3/5
f 555/2/5 552/2/5 551/2/5
f 556/2/5 552/2/5 555/2/5
f 557/2/5 554/2/5 553/2/5
f 558/2/5 554/2/5 557/2/5
f 559/6/5 556/6/5 555/6/5
f 560/6/5 556/6/5 559/6/5
f 561/6/5 558/6/5 557/6/5
f 562/6/5 558/6/5 561/6/5
f 567/2/5 564/2/5 563/2/5
f 568/2/5 564/2/5 567/2/5
f 569/2/5 566/2/5 565/2/5
f 570/2/5 566/2/5 569/2/5
f 575/6/5 572/6/5 571/6/5
f 576/6/5 572/6/5 575/6/5
f 577/6/5 574/6/5 573/6/5
f 578/6/5 574/6/5 577/6/5
f 583/6/5 580/6/5 579/6/5
f 584/6/5 580/6/5 583/6/5
f 585/6/5 582/6/5 581/6/5
f 586/6/5 582/6/5 585/6/5
f 591/6/5 588/6/5 587/6/5
f 592/6/5 588/6/5 591/6/5
f 593/6/5 590/6/5 589/6/5
f 594/6/5 590/6/5 593/6/5
f 595/4/6 596/4/6 597/4/6
f 597/4/6 596/4/6 598/4/6
f 598/4/6 596/4/6 599/4/6
f 599/4/6 596/4/6 600/4/6
f 601/6/6 602/6/6 603/6/6
f 603/6/6 602/6/6 604/6/6
f 605/3/6 606/3/6 609/3/6
f 609/3/6 606/3/6 610/3/6
f 607/3/6 608/3/6 611/3/6
f 611/3/6 608/3/6 612/3/6
f 613/2/6 614/2/6 617/2/6
f 617/2/6 614/2/6 618/2/6
f 615/2/6 616/2/6 619/2/6
f 619/2/6 616/2/6 620/2/6
f 621/2/6 622/2/6 623/2/6
f 623/2/6 622/2/6 624/2/6
f 624/2/6 622/2/6 625/2/6
f 625/2/6 622/2/6 626/2/6
f 621/2/6 623/2/6 627/2/6
f 626/2/6 622/2/6 628/2/6
f 627/2/6 623/2/6 629/2/6
f 626/2/6 628/2/6 630/2/6
f 629/2/6 623/2/6 631/2/6
f 626/2/6 630/2/6 632/2/6
f 631/2/6 623/2/6 633/2/6
f 633/2/6 623/2/6 634/2/6
f 626/2/6 632/2/6 635/2/6
f 635/2/6 632/2/6 636/2/6
f 633/6/6 634/6/6 637/6/6
f 635/6/6 636/6/6 640/6/6
f 633/6/6 637/6/6 641/6/6
f 637/2/6 638/2/6 642/2/6
f 641/6/6 637/6/6 642/6/6
f 639/2/6 640/2/6 643/2/6
f 640/6/6 636/6/6 643/6/6
f 643/6/6 636/6/6 644/6/6
f 642/2/6 638/2/6 645/2/6
f 638/6/6 639/6/6 646/6/6
f 645/2/6 638/2/6 646/2/6
f 639/2/6 643/2/6 647/2/6
f 646/6/6 639/6/6 647/6/6
f 647/2/6 643/2/6 648/2/6
f 645/6/6 646/6/6 649/6/6
f 646/6/6 647/6/6 649/6/6
f 647/6/6 648/6/6 649/6/6
f 649/6/6 648/6/6 650/6/6
f 651/2/6 652/2/6 655/2/6
f 652/6/6 653/6/6 655/6/6
f 653/2/6 654/2/6 656/2/6
f 655/6/6 653/6/6 656/6/6
f 651/2/6 655/2/6 657/2/6
f 656/2/6 654/2/6 658/2/6
f 651/2/6 657/2/6 659/2/6
f 657/6/6 658/6/6 659/6/6
f 658/2/6 654/2/6 660/2/6
f 659/6/6 658/6/6 660/6/6
f 651/2/6 659/2/6 661/2/6
f 660/2/6 654/2/6 662/2/6
f 651/2/6 661/2/6 663/2/6
f 661/6/6 662/6/6 664/6/6
f 663/2/6 661/2/6 664/2/6
f 662/2/6 654/2/6 665/2/6
f 664/6/6 662/6/6 665/6/6
f 665/2/6 654/2/6 666/2/6
f 667/3/6 668/3/6 669/3/6
f 669/3/6 668/3/6 670/3/6
f 671/6/6 672/6/6 675/6/6
f 675/6/6 672/6/6 676/6/6
f 673/6/6 674/6/6 679/6/6
f 679/6/6 674/6/6 680/6/6
f 677/6/6 678/6/6 681/6/6
f 681/6/6 678/6/6 682/6/6
f 683/6/6 684/6/6 685/6/6
f 685/6/6 684/6/6 686/6/6
f 687/6/6 688/6/6 691/6/6
f 691/6/6 688/6/6 692/6/6
f 689/6/6 690/6/6 693/6/6
f 693/6/6 690/6/6 694/6/6
