# MagicaVoxel @ Ephtracy

# group
o 

# material
mtllib Stone Fence with Pole.mtl
usemtl palette

# normals
vn -1 0 0
vn 1 0 0
vn 0 0 1
vn 0 0 -1
vn 0 -1 0
vn 0 1 0

# texcoords
vt 0.720703 0.5
vt 0.724609 0.5
vt 0.728516 0.5
vt 0.732422 0.5
vt 0.736328 0.5
vt 0.740234 0.5
vt 0.978516 0.5

# verts
v -1 0.7 0.3
v -1 0.7 -0.3
v -1 0.8 0.3
v -1 0.8 -0.3
v -1 1.1 -0.1
v -1 1.1 -0.3
v -1 1.3 -0.2
v -1 1.3 -0.3
v -1 1.4 -0.1
v -1 1.4 -0.2
v -1 1.4 -0.3
v -1 2.5 0.3
v -1 2.5 0.2
v -1 2.5 -0.2
v -1 2.5 -0.3
v -1 2.6 0.3
v -1 2.6 0.2
v -1 2.6 -0.2
v -1 2.6 -0.3
v -0.9 0.7 -0.3
v -0.9 0.7 -0.4
v -0.9 0.8 -0.3
v -0.9 0.8 -0.4
v -0.9 1 -0.3
v -0.9 1 -0.4
v -0.9 1.1 -0.3
v -0.9 1.1 -0.4
v -0.4 0.7 0.4
v -0.4 0.7 0.3
v -0.4 0.8 0.4
v -0.4 0.8 0.3
v -0.4 0.9 0.3
v -0.4 1.1 -0.3
v -0.4 1.1 -0.4
v -0.4 1.7 -0.3
v -0.4 1.8 -0.3
v -0.4 2.1 -0.3
v -0.4 2.2 -0.3
v -0.4 2.5 0.3
v -0.4 2.5 -0.3
v -0.4 2.6 0.3
v -0.4 2.6 0.2
v -0.4 2.6 -0.2
v -0.4 2.6 -0.3
v -0.4 2.7 0.3
v -0.4 2.7 -0.3
v -0.4 2.8 0.4
v -0.4 2.8 -0.4
v -0.3 2.8 0.3
v -0.3 2.8 -0.3
v -0.3 2.9 0.3
v -0.3 2.9 -0.3
v 0.3 2.8 0.3
v 0.3 2.8 -0.3
v 0.3 2.9 0.3
v 0.3 2.9 -0.3
v 0.4 0.7 0.4
v 0.4 0.7 0.3
v 0.4 0.7 -0.3
v 0.4 0.7 -0.4
v 0.4 0.8 0.4
v 0.4 0.8 0.3
v 0.4 0.8 -0.3
v 0.4 0.8 -0.4
v 0.4 1 0.3
v 0.4 1.2 0.3
v 0.4 1.3 0.3
v 0.4 2.5 0.3
v 0.4 2.5 -0.3
v 0.4 2.6 0.3
v 0.4 2.6 0.2
v 0.4 2.6 -0.2
v 0.4 2.6 -0.3
v 0.4 2.7 0.3
v 0.4 2.7 -0.3
v 0.4 2.8 0.4
v 0.4 2.8 -0.4
v 0.9 1.9 -0.2
v 0.9 1.9 -0.3
v 0.9 2 -0.2
v 0.9 2 -0.3
v 1 0.7 0.3
v 1 0.7 -0.3
v 1 0.8 0.3
v 1 0.8 -0.3
v 1 1.1 0
v 1 1.1 -0.3
v 1 1.3 -0.2
v 1 1.3 -0.3
v 1 1.4 0
v 1 1.4 -0.2
v 1 1.4 -0.3
v 1 1.9 -0.2
v 1 1.9 -0.3
v 1 2 -0.2
v 1 2 -0.3
v 1 2.5 0.3
v 1 2.5 0.2
v 1 2.5 -0.2
v 1 2.5 -0.3
v 1 2.6 0.3
v 1 2.6 0.2
v 1 2.6 -0.2
v 1 2.6 -0.3
v -0.4 0.7 0.4
v -0.4 0.8 0.4
v -0.4 2.8 0.4
v -0.3 0.8 0.4
v -0.3 2.7 0.4
v 0 1.1 0.4
v 0 1.2 0.4
v 0 1.9 0.4
v 0 2 0.4
v 0 2.1 0.4
v 0.1 1.1 0.4
v 0.1 1.2 0.4
v 0.2 1.9 0.4
v 0.2 2 0.4
v 0.2 2.1 0.4
v 0.3 0.8 0.4
v 0.3 2.7 0.4
v 0.4 0.7 0.4
v 0.4 0.8 0.4
v 0.4 2.8 0.4
v -1 0.7 0.3
v -1 0.8 0.3
v -1 2.5 0.3
v -1 2.6 0.3
v -0.8 1.1 0.3
v -0.8 1.2 0.3
v -0.8 1.4 0.3
v -0.8 1.5 0.3
v -0.7 0.8 0.3
v -0.7 0.9 0.3
v -0.5 1.1 0.3
v -0.5 1.2 0.3
v -0.5 1.4 0.3
v -0.5 1.5 0.3
v -0.4 0.7 0.3
v -0.4 0.8 0.3
v -0.4 0.9 0.3
v -0.4 2.5 0.3
v -0.4 2.6 0.3
v -0.3 2.8 0.3
v -0.3 2.9 0.3
v 0.3 2.8 0.3
v 0.3 2.9 0.3
v 0.4 0.7 0.3
v 0.4 0.8 0.3
v 0.4 1 0.3
v 0.4 1.2 0.3
v 0.4 1.3 0.3
v 0.4 2.5 0.3
v 0.4 2.6 0.3
v 0.5 1 0.3
v 0.5 1.2 0.3
v 0.5 1.3 0.3
v 0.6 1.2 0.3
v 0.6 1.3 0.3
v 0.6 1.5 0.3
v 0.6 1.6 0.3
v 0.8 1.4 0.3
v 0.8 1.5 0.3
v 0.8 1.6 0.3
v 0.9 1.2 0.3
v 0.9 1.3 0.3
v 0.9 1.4 0.3
v 0.9 1.5 0.3
v 1 0.7 0.3
v 1 0.8 0.3
v 1 2.5 0.3
v 1 2.6 0.3
v 0.9 1.9 -0.2
v 0.9 2 -0.2
v 1 1.9 -0.2
v 1 2 -0.2
v -1 0.7 -0.3
v -1 0.8 -0.3
v -1 1.1 -0.3
v -1 1.3 -0.3
v -1 1.4 -0.3
v -1 2.5 -0.3
v -1 2.6 -0.3
v -0.9 0.7 -0.3
v -0.9 0.8 -0.3
v -0.9 1 -0.3
v -0.9 1.1 -0.3
v -0.9 1.7 -0.3
v -0.9 1.8 -0.3
v -0.9 2.1 -0.3
v -0.9 2.2 -0.3
v -0.7 1.1 -0.3
v -0.7 1.3 -0.3
v -0.7 1.4 -0.3
v -0.4 1.1 -0.3
v -0.4 1.7 -0.3
v -0.4 1.8 -0.3
v -0.4 2.1 -0.3
v -0.4 2.2 -0.3
v -0.4 2.5 -0.3
v -0.4 2.6 -0.3
v -0.3 2.8 -0.3
v -0.3 2.9 -0.3
v 0.3 2.8 -0.3
v 0.3 2.9 -0.3
v 0.4 0.7 -0.3
v 0.4 0.8 -0.3
v 0.4 2.5 -0.3
v 0.4 2.6 -0.3
v 0.6 1.5 -0.3
v 0.6 1.7 -0.3
v 0.6 1.8 -0.3
v 0.8 1.1 -0.3
v 0.8 1.3 -0.3
v 0.8 1.4 -0.3
v 0.9 1.5 -0.3
v 0.9 1.7 -0.3
v 0.9 1.8 -0.3
v 0.9 1.9 -0.3
v 0.9 2 -0.3
v 1 0.7 -0.3
v 1 0.8 -0.3
v 1 1.1 -0.3
v 1 1.3 -0.3
v 1 1.4 -0.3
v 1 1.9 -0.3
v 1 2 -0.3
v 1 2.5 -0.3
v 1 2.6 -0.3
v -0.9 0.7 -0.4
v -0.9 0.8 -0.4
v -0.9 1 -0.4
v -0.9 1.1 -0.4
v -0.4 0.8 -0.4
v -0.4 1 -0.4
v -0.4 1.1 -0.4
v -0.4 2.8 -0.4
v -0.3 0.8 -0.4
v -0.3 2.7 -0.4
v -0.2 2.3 -0.4
v -0.2 2.4 -0.4
v -0.1 2.3 -0.4
v -0.1 2.4 -0.4
v -0.1 2.5 -0.4
v -0.1 2.6 -0.4
v 0 2.5 -0.4
v 0 2.6 -0.4
v 0.3 0.8 -0.4
v 0.3 2.7 -0.4
v 0.4 0.7 -0.4
v 0.4 0.8 -0.4
v 0.4 2.8 -0.4
v -0.4 0.7 0.4
v 0.4 0.7 0.4
v -1 0.7 0.3
v -0.4 0.7 0.3
v 0.4 0.7 0.3
v 1 0.7 0.3
v -1 0.7 -0.3
v -0.9 0.7 -0.3
v 0.4 0.7 -0.3
v 1 0.7 -0.3
v -0.9 0.7 -0.4
v 0.4 0.7 -0.4
v 0.9 2 -0.2
v 1 2 -0.2
v 0.9 2 -0.3
v 1 2 -0.3
v -0.9 1.1 -0.3
v -0.7 1.1 -0.3
v -0.4 1.1 -0.3
v -0.9 1.1 -0.4
v -0.4 1.1 -0.4
v 0.9 1.9 -0.2
v 1 1.9 -0.2
v 0.9 1.9 -0.3
v 1 1.9 -0.3
v -1 2.6 0.3
v -0.4 2.6 0.3
v 0.4 2.6 0.3
v 1 2.6 0.3
v -1 2.6 0.2
v -0.4 2.6 0.2
v 0.4 2.6 0.2
v 1 2.6 0.2
v -1 2.6 -0.2
v -0.4 2.6 -0.2
v 0.4 2.6 -0.2
v 1 2.6 -0.2
v -1 2.6 -0.3
v -0.4 2.6 -0.3
v 0.4 2.6 -0.3
v 1 2.6 -0.3
v -0.4 2.8 0.4
v 0.4 2.8 0.4
v -0.3 2.8 0.3
v 0.3 2.8 0.3
v -0.3 2.8 -0.3
v 0.3 2.8 -0.3
v -0.4 2.8 -0.4
v 0.4 2.8 -0.4
v -0.3 2.9 0.3
v 0.3 2.9 0.3
v -0.2 2.9 0.2
v 0.2 2.9 0.2
v -0.2 2.9 -0.2
v 0.2 2.9 -0.2
v -0.3 2.9 -0.3
v 0.3 2.9 -0.3

# faces
f 3/6/1 2/6/1 1/6/1
f 4/6/1 2/6/1 3/6/1
f 5/2/1 4/2/1 3/2/1
f 6/2/1 4/2/1 5/2/1
f 7/5/1 6/5/1 5/5/1
f 8/5/1 6/5/1 7/5/1
f 9/2/1 5/2/1 3/2/1
f 9/5/1 7/5/1 5/5/1
f 10/4/1 8/4/1 7/4/1
f 10/5/1 7/5/1 9/5/1
f 11/4/1 8/4/1 10/4/1
f 12/2/1 9/2/1 3/2/1
f 12/2/1 10/2/1 9/2/1
f 12/2/1 11/2/1 10/2/1
f 13/2/1 11/2/1 12/2/1
f 14/2/1 11/2/1 13/2/1
f 15/2/1 11/2/1 14/2/1
f 16/1/1 13/1/1 12/1/1
f 17/2/1 14/2/1 13/2/1
f 17/1/1 13/1/1 16/1/1
f 18/1/1 15/1/1 14/1/1
f 18/2/1 14/2/1 17/2/1
f 19/1/1 15/1/1 18/1/1
f 22/6/1 21/6/1 20/6/1
f 23/6/1 21/6/1 22/6/1
f 24/5/1 23/5/1 22/5/1
f 25/5/1 23/5/1 24/5/1
f 26/4/1 25/4/1 24/4/1
f 27/4/1 25/4/1 26/4/1
f 30/6/1 29/6/1 28/6/1
f 31/6/1 29/6/1 30/6/1
f 32/1/1 31/1/1 30/1/1
f 35/1/1 34/1/1 33/1/1
f 36/1/1 34/1/1 35/1/1
f 37/1/1 34/1/1 36/1/1
f 38/1/1 34/1/1 37/1/1
f 39/1/1 32/1/1 30/1/1
f 40/1/1 34/1/1 38/1/1
f 41/1/1 39/1/1 30/1/1
f 44/1/1 34/1/1 40/1/1
f 45/2/1 43/2/1 42/2/1
f 45/2/1 44/2/1 43/2/1
f 45/1/1 41/1/1 30/1/1
f 45/2/1 42/2/1 41/2/1
f 46/1/1 34/1/1 44/1/1
f 46/2/1 44/2/1 45/2/1
f 47/1/1 45/1/1 30/1/1
f 47/1/1 46/1/1 45/1/1
f 48/1/1 34/1/1 46/1/1
f 48/1/1 46/1/1 47/1/1
f 51/1/1 50/1/1 49/1/1
f 52/1/1 50/1/1 51/1/1
f 53/1/2 54/1/2 55/1/2
f 55/1/2 54/1/2 56/1/2
f 57/6/2 58/6/2 61/6/2
f 61/6/2 58/6/2 62/6/2
f 59/6/2 60/6/2 63/6/2
f 63/6/2 60/6/2 64/6/2
f 61/1/2 62/1/2 65/1/2
f 61/1/2 65/1/2 66/1/2
f 61/1/2 66/1/2 67/1/2
f 61/1/2 67/1/2 68/1/2
f 63/1/2 64/1/2 69/1/2
f 61/1/2 68/1/2 70/1/2
f 69/1/2 64/1/2 73/1/2
f 71/2/2 72/2/2 74/2/2
f 72/2/2 73/2/2 74/2/2
f 61/1/2 70/1/2 74/1/2
f 70/2/2 71/2/2 74/2/2
f 73/1/2 64/1/2 75/1/2
f 74/2/2 73/2/2 75/2/2
f 61/1/2 74/1/2 76/1/2
f 74/1/2 75/1/2 76/1/2
f 75/1/2 64/1/2 77/1/2
f 76/1/2 75/1/2 77/1/2
f 78/2/2 79/2/2 80/2/2
f 80/2/2 79/2/2 81/2/2
f 82/6/2 83/6/2 84/6/2
f 84/6/2 83/6/2 85/6/2
f 84/2/2 85/2/2 86/2/2
f 86/2/2 85/2/2 87/2/2
f 86/5/2 87/5/2 88/5/2
f 88/5/2 87/5/2 89/5/2
f 84/2/2 86/2/2 90/2/2
f 86/5/2 88/5/2 90/5/2
f 88/4/2 89/4/2 91/4/2
f 90/5/2 88/5/2 91/5/2
f 91/4/2 89/4/2 92/4/2
f 90/2/2 91/2/2 93/2/2
f 91/2/2 92/2/2 93/2/2
f 93/2/2 92/2/2 94/2/2
f 90/2/2 93/2/2 95/2/2
f 84/2/2 90/2/2 97/2/2
f 95/2/2 96/2/2 97/2/2
f 90/2/2 95/2/2 97/2/2
f 97/2/2 96/2/2 98/2/2
f 98/2/2 96/2/2 99/2/2
f 99/2/2 96/2/2 100/2/2
f 97/1/2 98/1/2 101/1/2
f 98/2/2 99/2/2 102/2/2
f 101/1/2 98/1/2 102/1/2
f 99/1/2 100/1/2 103/1/2
f 102/2/2 99/2/2 103/2/2
f 103/1/2 100/1/2 104/1/2
f 108/6/3 106/6/3 105/6/3
f 108/1/3 107/1/3 106/1/3
f 109/1/3 107/1/3 108/1/3
f 110/2/3 109/2/3 108/2/3
f 111/2/3 109/2/3 110/2/3
f 112/2/3 109/2/3 111/2/3
f 113/2/3 109/2/3 112/2/3
f 114/2/3 109/2/3 113/2/3
f 115/2/3 110/2/3 108/2/3
f 115/5/3 111/5/3 110/5/3
f 116/2/3 112/2/3 111/2/3
f 116/5/3 111/5/3 115/5/3
f 117/1/3 113/1/3 112/1/3
f 117/2/3 112/2/3 116/2/3
f 117/2/3 116/2/3 115/2/3
f 118/7/3 114/7/3 113/7/3
f 118/1/3 113/1/3 117/1/3
f 119/2/3 109/2/3 114/2/3
f 119/7/3 114/7/3 118/7/3
f 120/6/3 108/6/3 105/6/3
f 120/2/3 118/2/3 117/2/3
f 120/2/3 119/2/3 118/2/3
f 120/2/3 115/2/3 108/2/3
f 120/2/3 117/2/3 115/2/3
f 121/2/3 109/2/3 119/2/3
f 121/2/3 119/2/3 120/2/3
f 121/1/3 107/1/3 109/1/3
f 122/6/3 120/6/3 105/6/3
f 123/1/3 121/1/3 120/1/3
f 123/6/3 120/6/3 122/6/3
f 124/1/3 107/1/3 121/1/3
f 124/1/3 121/1/3 123/1/3
f 129/2/3 127/2/3 126/2/3
f 130/2/3 127/2/3 129/2/3
f 131/2/3 127/2/3 130/2/3
f 132/2/3 127/2/3 131/2/3
f 133/6/3 126/6/3 125/6/3
f 133/2/3 129/2/3 126/2/3
f 134/2/3 129/2/3 133/2/3
f 135/4/3 130/4/3 129/4/3
f 135/2/3 129/2/3 134/2/3
f 136/5/3 131/5/3 130/5/3
f 136/4/3 130/4/3 135/4/3
f 137/4/3 132/4/3 131/4/3
f 137/5/3 131/5/3 136/5/3
f 138/2/3 127/2/3 132/2/3
f 138/4/3 132/4/3 137/4/3
f 139/6/3 134/6/3 133/6/3
f 139/6/3 133/6/3 125/6/3
f 140/6/3 134/6/3 139/6/3
f 141/2/3 137/2/3 136/2/3
f 141/6/3 134/6/3 140/6/3
f 141/2/3 136/2/3 135/2/3
f 141/2/3 135/2/3 134/2/3
f 141/2/3 138/2/3 137/2/3
f 142/1/3 128/1/3 127/1/3
f 142/2/3 138/2/3 141/2/3
f 142/2/3 127/2/3 138/2/3
f 143/1/3 128/1/3 142/1/3
f 146/1/3 145/1/3 144/1/3
f 147/1/3 145/1/3 146/1/3
f 155/2/3 150/2/3 149/2/3
f 155/5/3 151/5/3 150/5/3
f 156/4/3 152/4/3 151/4/3
f 156/5/3 151/5/3 155/5/3
f 157/2/3 153/2/3 152/2/3
f 157/4/3 152/4/3 156/4/3
f 158/2/3 156/2/3 155/2/3
f 158/2/3 157/2/3 156/2/3
f 159/2/3 153/2/3 157/2/3
f 159/2/3 157/2/3 158/2/3
f 160/2/3 153/2/3 159/2/3
f 161/2/3 153/2/3 160/2/3
f 162/1/3 160/1/3 159/1/3
f 163/3/3 161/3/3 160/3/3
f 163/1/3 160/1/3 162/1/3
f 164/2/3 153/2/3 161/2/3
f 164/3/3 161/3/3 163/3/3
f 165/2/3 158/2/3 155/2/3
f 165/4/3 159/4/3 158/4/3
f 166/1/3 162/1/3 159/1/3
f 166/4/3 159/4/3 165/4/3
f 167/3/3 163/3/3 162/3/3
f 167/1/3 162/1/3 166/1/3
f 168/2/3 164/2/3 163/2/3
f 168/3/3 163/3/3 167/3/3
f 169/6/3 149/6/3 148/6/3
f 170/2/3 155/2/3 149/2/3
f 170/6/3 149/6/3 169/6/3
f 170/2/3 167/2/3 166/2/3
f 170/2/3 168/2/3 167/2/3
f 170/2/3 165/2/3 155/2/3
f 170/2/3 166/2/3 165/2/3
f 171/2/3 164/2/3 168/2/3
f 171/2/3 168/2/3 170/2/3
f 171/1/3 154/1/3 153/1/3
f 171/2/3 153/2/3 164/2/3
f 172/1/3 154/1/3 171/1/3
f 173/2/4 174/2/4 175/2/4
f 175/2/4 174/2/4 176/2/4
f 177/6/4 178/6/4 184/6/4
f 178/2/4 179/2/4 185/2/4
f 184/6/4 178/6/4 185/6/4
f 185/2/4 179/2/4 186/2/4
f 179/5/4 180/5/4 187/5/4
f 186/2/4 179/2/4 187/2/4
f 181/2/4 182/2/4 188/2/4
f 188/2/4 182/2/4 189/2/4
f 189/2/4 182/2/4 190/2/4
f 190/2/4 182/2/4 191/2/4
f 187/5/4 180/5/4 192/5/4
f 180/4/4 181/4/4 193/4/4
f 192/5/4 180/5/4 193/5/4
f 181/2/4 188/2/4 194/2/4
f 193/4/4 181/4/4 194/4/4
f 192/2/4 193/2/4 195/2/4
f 193/2/4 194/2/4 195/2/4
f 188/4/4 189/4/4 196/4/4
f 195/2/4 194/2/4 196/2/4
f 194/2/4 188/2/4 196/2/4
f 189/1/4 190/1/4 197/1/4
f 196/4/4 189/4/4 197/4/4
f 190/3/4 191/3/4 198/3/4
f 197/1/4 190/1/4 198/1/4
f 191/2/4 182/2/4 199/2/4
f 198/3/4 191/3/4 199/3/4
f 182/1/4 183/1/4 200/1/4
f 199/2/4 182/2/4 200/2/4
f 200/1/4 183/1/4 201/1/4
f 202/1/4 203/1/4 204/1/4
f 204/1/4 203/1/4 205/1/4
f 207/2/4 208/2/4 210/2/4
f 210/2/4 208/2/4 211/2/4
f 211/2/4 208/2/4 212/2/4
f 207/2/4 210/2/4 213/2/4
f 213/2/4 210/2/4 214/2/4
f 214/2/4 210/2/4 215/2/4
f 210/1/4 211/1/4 216/1/4
f 215/2/4 210/2/4 216/2/4
f 211/3/4 212/3/4 217/3/4
f 216/1/4 211/1/4 217/1/4
f 212/2/4 208/2/4 218/2/4
f 217/3/4 212/3/4 218/3/4
f 218/2/4 208/2/4 219/2/4
f 219/2/4 208/2/4 220/2/4
f 206/6/4 207/6/4 221/6/4
f 207/2/4 213/2/4 222/2/4
f 221/6/4 207/6/4 222/6/4
f 213/5/4 214/5/4 223/5/4
f 222/2/4 213/2/4 223/2/4
f 214/4/4 215/4/4 224/4/4
f 223/5/4 214/5/4 224/5/4
f 216/2/4 217/2/4 225/2/4
f 224/4/4 215/4/4 225/4/4
f 215/2/4 216/2/4 225/2/4
f 218/2/4 219/2/4 225/2/4
f 217/2/4 218/2/4 225/2/4
f 225/2/4 219/2/4 226/2/4
f 220/2/4 208/2/4 227/2/4
f 208/1/4 209/1/4 228/1/4
f 227/2/4 208/2/4 228/2/4
f 228/1/4 209/1/4 229/1/4
f 230/6/4 231/6/4 234/6/4
f 231/5/4 232/5/4 234/5/4
f 232/4/4 233/4/4 235/4/4
f 234/5/4 232/5/4 235/5/4
f 235/4/4 233/4/4 236/4/4
f 230/6/4 234/6/4 238/6/4
f 236/1/4 237/1/4 238/1/4
f 235/1/4 236/1/4 238/1/4
f 234/1/4 235/1/4 238/1/4
f 238/1/4 237/1/4 239/1/4
f 238/2/4 239/2/4 240/2/4
f 240/2/4 239/2/4 241/2/4
f 238/2/4 240/2/4 242/2/4
f 240/7/4 241/7/4 242/7/4
f 241/2/4 239/2/4 243/2/4
f 242/7/4 241/7/4 243/7/4
f 243/2/4 239/2/4 244/2/4
f 244/2/4 239/2/4 245/2/4
f 242/2/4 243/2/4 246/2/4
f 243/2/4 244/2/4 246/2/4
f 244/7/4 245/7/4 246/7/4
f 245/2/4 239/2/4 247/2/4
f 246/7/4 245/7/4 247/7/4
f 230/6/4 238/6/4 248/6/4
f 238/2/4 242/2/4 248/2/4
f 246/2/4 247/2/4 248/2/4
f 242/2/4 246/2/4 248/2/4
f 247/2/4 239/2/4 249/2/4
f 248/2/4 247/2/4 249/2/4
f 239/1/4 237/1/4 249/1/4
f 230/6/4 248/6/4 250/6/4
f 248/1/4 249/1/4 251/1/4
f 250/6/4 248/6/4 251/6/4
f 249/1/4 237/1/4 252/1/4
f 251/1/4 249/1/4 252/1/4
f 256/6/5 254/6/5 253/6/5
f 257/6/5 254/6/5 256/6/5
f 259/6/5 256/6/5 255/6/5
f 259/6/5 258/6/5 257/6/5
f 259/6/5 257/6/5 256/6/5
f 260/6/5 258/6/5 259/6/5
f 261/6/5 258/6/5 260/6/5
f 262/6/5 258/6/5 261/6/5
f 263/6/5 261/6/5 260/6/5
f 264/6/5 261/6/5 263/6/5
f 267/2/5 266/2/5 265/2/5
f 268/2/5 266/2/5 267/2/5
f 269/4/6 270/4/6 272/4/6
f 270/4/6 271/4/6 272/4/6
f 272/4/6 271/4/6 273/4/6
f 274/2/6 275/2/6 276/2/6
f 276/2/6 275/2/6 277/2/6
f 278/1/6 279/1/6 282/1/6
f 282/1/6 279/1/6 283/1/6
f 280/1/6 281/1/6 284/1/6
f 284/1/6 281/1/6 285/1/6
f 282/2/6 283/2/6 286/2/6
f 286/2/6 283/2/6 287/2/6
f 284/2/6 285/2/6 288/2/6
f 288/2/6 285/2/6 289/2/6
f 286/1/6 287/1/6 290/1/6
f 290/1/6 287/1/6 291/1/6
f 288/1/6 289/1/6 292/1/6
f 292/1/6 289/1/6 293/1/6
f 294/1/6 295/1/6 296/1/6
f 296/1/6 295/1/6 297/1/6
f 294/1/6 296/1/6 298/1/6
f 297/1/6 295/1/6 299/1/6
f 294/1/6 298/1/6 300/1/6
f 298/1/6 299/1/6 300/1/6
f 299/1/6 295/1/6 301/1/6
f 300/1/6 299/1/6 301/1/6
f 302/1/6 303/1/6 304/1/6
f 304/1/6 303/1/6 305/1/6
f 302/1/6 304/1/6 306/1/6
f 304/2/6 305/2/6 306/2/6
f 305/1/6 303/1/6 307/1/6
f 306/2/6 305/2/6 307/2/6
f 302/1/6 306/1/6 308/1/6
f 306/1/6 307/1/6 308/1/6
f 307/1/6 303/1/6 309/1/6
f 308/1/6 307/1/6 309/1/6
